<svg viewBox="0 0 17.8333 17.8333" fill="none" xmlns="http://www.w3.org/2000/svg" xmlns:xlink="http://www.w3.org/1999/xlink" x="0" y="0"><path id="Vector_3" d="M7.6666,10.9998h-2.5c-1.105,0 -2.165,0.439 -2.946,1.221c-0.782,0.781 -1.221,1.841 -1.221,2.946v0.833h6.709M13.4996,10.1668v3.333M13.4996,13.4998v3.334M13.4996,13.4998h-3.333M13.4996,13.4998h3.334M11.8336,4.7498c0,0.995 -0.395,1.949 -1.099,2.652c-0.703,0.703 -1.657,1.098 -2.651,1.098c-0.995,0 -1.949,-0.395 -2.652,-1.098c-0.703,-0.703 -1.098,-1.657 -1.098,-2.652c0,-0.994 0.395,-1.948 1.098,-2.651c0.703,-0.704 1.657,-1.099 2.652,-1.099c0.994,0 1.948,0.395 2.651,1.099c0.704,0.703 1.099,1.657 1.099,2.651z" stroke="white" stroke-width="2" stroke-linecap="square"/></svg>