<svg viewBox="0 0 236 40" fill="none" xmlns="http://www.w3.org/2000/svg" xmlns:xlink="http://www.w3.org/1999/xlink" x="0" y="0"><defs><clipPath id="clip6_1_3">
<rect width="236" height="40" fill="white" transform="translate(0.0004000000000132786, 0)"/>
</clipPath></defs><g id="Frame_3" clip-path="url(#clip6_1_3)">
<path id="Vector_98" d="M7.0204,20.51l31.316,-8.38h-28.242zM6.5994,21.66l-1.316,3.59h0.002l-3.189,8.9l36.498,-21.05zM1.5754,35.6l-1.575,4.4h13.033l26.061,-26.04zM14.4484,40h10.718l14.64,-25.33zM26.3214,40h7.69l6.66,-24.83zM35.0474,40h6.59v-24.57zM42.6384,40h6.59l-6.59,-24.57zM50.1714,39.65l2.149,-6c0.324,-0.9 0.44,-1.86 0.353,-2.79l-9.068,-15.69zM50.3864,24.9c1.078,-0.28 2.1,-0.71 3.035,-1.29l-8.948,-8.94zM54.2624,23.04c0.911,-0.69 1.718,-1.52 2.383,-2.46l-11.465,-6.62zM57.1834,19.73c0.309,-0.53 0.574,-1.1 0.792,-1.7l0.55,-1.5l-12.848,-3.43zM58.8714,15.59l1.269,-3.46h-14.199zM60.5074,11.13l1.124,-3.07c0.149,-0.4 0.251,-0.81 0.31,-1.21l-16.002,4.28zM62.0004,5.8c-0.052,-1.54 -0.702,-2.98 -1.755,-4.04l-14.567,8.41zM59.4324,1.08c-0.961,-0.68 -2.139,-1.08 -3.44,-1.08h-1.507l-9.308,9.3zM53.0704,0h-3.633l-4.963,8.59zM48.2814,0h-2.506l-2.17,8.09zM44.7394,0h-2.101v7.83zM41.6374,0h-2.1l2.1,7.83zM38.5014,0h-2.506l4.675,8.09zM34.8394,0h-3.635l8.601,8.59zM29.7894,0h-6.814l16.121,9.3zM10.4614,11.13h27.877l-25.385,-6.8zM13.3034,3.39l25.29,6.77l-17.62,-10.16h-2.585c-2.233,0 -4.236,1.35 -5.085,3.39z" fill="#FF651D"/>
<path id="Vector_99" d="M193.8274,12.46h8.823l8.212,14.16l8.238,-14.16h8.824v18.6h-4.146v-18.42l-10.71,18.42h-4.385l-10.737,-18.42v18.42h-4.119z" fill="#431500"/>
<path id="Vector_100" d="M167.2504,23.83c-3.136,0 -5.661,-2.52 -5.661,-5.69c0,-3.13 2.525,-5.68 5.661,-5.68h24.051v4.14h-24.051c-0.85,0 -1.541,0.69 -1.541,1.54c0,0.88 0.691,1.57 1.541,1.57h18.364c3.136,0 5.687,2.53 5.687,5.69c0,3.14 -2.551,5.66 -5.687,5.66h-24.025v-4.12h24.025c0.85,0 1.541,-0.69 1.541,-1.54c0,-0.88 -0.691,-1.57 -1.541,-1.57z" fill="#431500"/>
<path id="Vector_101" d="M152.1864,12.46c3.986,0 7.228,3.24 7.228,7.25c0,3.99 -3.242,7.23 -7.228,7.23h-18.603v4.12h-4.12v-18.6zM152.1594,22.8c1.728,0 3.11,-1.39 3.11,-3.09c0,-1.72 -1.382,-3.11 -3.11,-3.11h-18.576v6.2z" fill="#431500"/>
<path id="Vector_102" d="M107.3044,16.6c-2.87,0 -5.183,2.32 -5.183,5.16c0,2.87 2.313,5.18 5.183,5.18h15.361v-3.24h-15.76v-4.12h19.905v11.48h-19.506c-5.156,0 -9.302,-4.15 -9.302,-9.3c0,-5.13 4.146,-9.3 9.302,-9.3h19.506v4.14z" fill="#431500"/>
<path id="Vector_103" d="M71.3284,31.06v-18.6h4.12v14.48h20.808v4.12z" fill="#431500"/>
<path id="Vector_104" d="M235.6394,11.42c0,1.33 -1.082,2.42 -2.417,2.42c-1.336,0 -2.418,-1.09 -2.418,-2.42c0,-1.34 1.082,-2.42 2.418,-2.42c1.335,0 2.417,1.08 2.417,2.42z" fill="#431500"/>
</g></svg>