<svg viewBox="0 0 282 40" fill="none" xmlns="http://www.w3.org/2000/svg" xmlns:xlink="http://www.w3.org/1999/xlink" x="0" y="0"><defs><clipPath id="clip7_1_3">
<rect width="282" height="40" fill="white" transform="translate(0.0004000000000132786, -0.0018999999997504347)"/>
</clipPath></defs><g id="Frame_4" clip-path="url(#clip7_1_3)">
<path id="Vector_105" d="M42.9984,-0.0019c7.18,0 13,5.82 13,13c0,7.18 -5.82,13 -13,13h-8.514l14.004,14h-16.973l-15.758,-15.76c-1.085,-1.08 -1.757,-2.58 -1.757,-4.24c0,-3.31 2.686,-6 6,-6h22.998c0.55,0 1,-0.45 1,-1c0,-0.55 -0.45,-1 -1,-1h-22.998c-4.419,0 -8,3.58 -8,8c0,2.39 1.048,4.54 2.71,6h-0.023l14,14h-8.687c-11.046,0 -20,-8.95 -20,-20c0,-11.04 8.954,-20 20,-20z" fill="#3902FF"/>
<path id="Vector_106" d="M55.9984,27.9981v12h-4.69l-12,-12z" fill="#3902FF"/>
<path id="Vector_107" d="M272.6284,8.3081l0.15,0.05c1.95,0.05 3.64,1.42 4.14,3.29l0.05,0.21l5.03,20.79h-6.67l-2.99,-12.38l-2.35,7.56c-0.69,2.08 -2.59,3.55 -4.78,3.55c-2.09,0 -3.98,-1.37 -4.68,-3.35l-0.1,-0.2l-2.34,-7.56l-2.99,12.38h-6.63l4.98,-20.79l0.05,-0.21c0.55,-1.97 2.3,-3.34 4.34,-3.34l0.15,0.05c1.84,0.05 3.44,1.26 4.08,2.99l0.05,0.15l3.09,9.89l3.09,-9.89l0.05,-0.15c0.65,-1.83 2.34,-3.04 4.28,-3.04z" fill="#130058"/>
<path id="Vector_108" d="M236.2284,32.6481c-6.63,0 -11.96,-5.43 -11.96,-12.17v-12.17h6.43v12.17c0,3.09 2.49,5.63 5.53,5.63c2.99,0 5.48,-2.54 5.48,-5.63v-12.17h6.48v12.17c0,6.74 -5.38,12.17 -11.96,12.17z" fill="#130058"/>
<path id="Vector_109" d="M223.0984,8.3081v6.59c-2.79,0 -5.23,1.87 -6.03,4.61l-1.14,3.86c-1.6,5.52 -6.58,9.28 -12.21,9.28v-6.54c2.74,0 5.23,-1.88 6.03,-4.62l1.09,-3.85c1.6,-5.53 6.58,-9.33 12.26,-9.33z" fill="#130058"/>
<path id="Vector_110" d="M197.2584,18.8481c1.05,0 1.95,-0.86 1.95,-1.97c0,-1.07 -0.9,-1.98 -1.95,-1.98h-7.12v3.95zM197.2584,8.3081c4.64,0 8.42,3.85 8.42,8.57c0,4.71 -3.78,8.57 -8.42,8.57h-7.12v7.2h-6.43v-18.41c0,-3.25 2.59,-5.93 5.78,-5.93z" fill="#130058"/>
<path id="Vector_111" d="M174.1384,8.3081h6.42v24.34h-6.42z" fill="#130058"/>
<path id="Vector_112" d="M159.6384,14.5881h-1.29c-3.24,0 -5.83,2.64 -5.83,5.89c0,3.29 2.59,5.93 5.83,5.93h1.29c3.24,0 5.83,-2.64 5.83,-5.93c0,-3.25 -2.59,-5.89 -5.83,-5.89zM158.3484,7.9981h1.29c6.78,0 12.26,5.58 12.26,12.48c0,6.94 -5.48,12.52 -12.26,12.52h-1.29c-6.78,0 -12.26,-5.58 -12.26,-12.52c0,-6.9 5.48,-12.48 12.26,-12.48z" fill="#130058"/>
<path id="Vector_113" d="M143.3584,14.8981h-12.55c-3.04,0 -5.53,2.53 -5.53,5.58c0,3.09 2.49,5.63 5.53,5.63h6.23c0.64,-0.11 1.19,-0.66 1.19,-1.37v-0.61h-9.71v-6.59h10.81c2.99,0 5.33,2.43 5.33,5.42v1.78c0,4.31 -3.34,7.81 -7.57,7.91h-6.28c-6.63,0 -11.96,-5.43 -11.96,-12.17c0,-6.7 5.33,-12.17 11.96,-12.17h12.55z" fill="#130058"/>
<path id="Vector_114" d="M105.4484,14.5881h-1.29c-3.24,0 -5.83,2.64 -5.83,5.89c0,3.29 2.59,5.93 5.83,5.93h1.29c3.24,0 5.83,-2.64 5.83,-5.93c0,-3.25 -2.59,-5.89 -5.83,-5.89zM104.1584,7.9981h1.29c6.78,0 12.26,5.58 12.26,12.48c0,6.94 -5.48,12.52 -12.26,12.52h-1.29c-6.78,0 -12.26,-5.58 -12.26,-12.52c0,-6.9 5.48,-12.48 12.26,-12.48z" fill="#130058"/>
<path id="Vector_115" d="M70.9984,22.8081v-14.5h6.43v14.5c0,1.82 1.44,3.3 3.24,3.3h9.71v6.54h-9.71c-5.33,0 -9.67,-4.41 -9.67,-9.84z" fill="#130058"/>
</g></svg>