<svg viewBox="0 0 285 40" fill="none" xmlns="http://www.w3.org/2000/svg" xmlns:xlink="http://www.w3.org/1999/xlink" x="0" y="0"><defs><clipPath id="clip8_1_3">
<rect width="285" height="40" fill="white" transform="translate(0.0024000000000796717, 0.0028999999999541615)"/>
</clipPath></defs><g id="Frame_5" clip-path="url(#clip8_1_3)">
<path id="Vector_116" d="M35.2324,0.0029c10.5,0 19,8.5 19,19v21c-4.42,0 -8,-3.58 -8,-8v-13c0,-6.08 -4.92,-11 -11,-11h-5.2c-2.65,0 -5.19,1.05 -7.07,2.93l-13.56,13.55c-0.75,0.75 -1.17,1.77 -1.17,2.83v0.69c0,2.21 1.79,4 4,4h18c0,4.28 -3.36,7.77 -7.58,7.99l-0.42,0.01h-10c-6.62,0 -12,-5.38 -12,-12v-0.69c0,-3.18 1.27,-6.23 3.52,-8.48l13.55,-13.56c3.38,-3.38 7.96,-5.27 12.73,-5.27z" fill="#FF500B"/>
<path id="Vector_117" d="M37.2324,12.0029c2.76,0 5,2.24 5,5v23c-4.42,0 -8,-3.58 -8,-8v-12h-3.34l-6.54,6.53c-0.93,0.94 -2.21,1.47 -3.53,1.47h-8.11c-0.42,0 -0.63,-0.51 -0.33,-0.81l13.73,-13.73c0.94,-0.94 2.21,-1.46 3.54,-1.46z" fill="#FF500B"/>
<path id="Vector_118" d="M274.8224,30.0429v-12.88c0,-0.38 -0.34,-0.71 -0.71,-0.71h-0.48c-0.3,0 -0.56,0.19 -0.67,0.45l-4.49,10.62c-0.64,1.56 -2.16,2.52 -3.83,2.52c-1.67,0 -3.16,-0.96 -3.79,-2.52l-4.53,-10.62c-0.07,-0.26 -0.33,-0.45 -0.63,-0.45h-0.48c-0.38,0 -0.71,0.33 -0.71,0.71v12.88h-4.2v-12.88c0,-2.72 2.19,-4.94 4.91,-4.94h0.48c1.97,0 3.75,1.18 4.53,3.04l4.42,10.48l4.42,-10.48c0.78,-1.86 2.56,-3.04 4.57,-3.04h0.48c2.71,0 4.9,2.22 4.9,4.94v12.88z" fill="#A62F00"/>
<path id="Vector_119" d="M231.1524,30.0429c-4.27,0 -7.73,-3.45 -7.73,-7.72v-10.1h4.2v10.1c0,1.93 1.6,3.53 3.53,3.53h8.91c1.93,0 3.53,-1.6 3.53,-3.53v-10.1h4.2v10.1c0,4.27 -3.46,7.72 -7.73,7.72z" fill="#A62F00"/>
<path id="Vector_120" d="M215.6924,25.8529c0.7,0 1.3,-0.6 1.3,-1.3c0,-0.71 -0.56,-1.27 -1.23,-1.3h-9.91c-3.05,0 -5.5,-2.45 -5.5,-5.5c0,-3.05 2.45,-5.53 5.5,-5.53h15.37v4.23h-15.37c-0.71,0 -1.3,0.59 -1.3,1.3c0,0.71 0.59,1.3 1.3,1.3h9.99c2.97,0.07 5.38,2.49 5.38,5.5c0,3.04 -2.49,5.49 -5.53,5.49h-15.34v-4.19z" fill="#A62F00"/>
<path id="Vector_121" d="M176.7824,30.0429v-12.88c0,-2.72 2.19,-4.94 4.9,-4.94h10.81c3.49,0 6.32,2.86 6.32,6.35c0,3.49 -2.83,6.35 -6.32,6.35h-11.51v5.12zM180.9824,17.1629v3.52h11.51c1.15,0 2.12,-0.96 2.12,-2.11c0,-1.15 -0.97,-2.12 -2.12,-2.12h-10.81c-0.37,0 -0.7,0.33 -0.7,0.71z" fill="#A62F00"/>
<path id="Vector_122" d="M169.7124,12.2229h4.2v17.82h-4.2z" fill="#A62F00"/>
<path id="Vector_123" d="M158.5924,25.8529c2.6,0 4.72,-2.12 4.72,-4.72c0,-2.56 -2.12,-4.68 -4.72,-4.68h-6.53c-2.6,0 -4.72,2.12 -4.72,4.68c0,2.6 2.12,4.72 4.72,4.72zM158.5924,12.2229c4.94,0 8.92,4.01 8.92,8.91c0,4.94 -3.98,8.91 -8.92,8.91h-6.53c-4.94,0 -8.92,-3.97 -8.92,-8.91c0,-4.9 3.98,-8.91 8.92,-8.91z" fill="#A62F00"/>
<path id="Vector_124" d="M126.8124,30.0429c-4.94,0 -8.91,-3.97 -8.91,-8.91c0,-4.9 3.97,-8.91 8.91,-8.91h12.89v4.23h-12.89c-2.6,0 -4.72,2.12 -4.72,4.68c0,2.6 2.12,4.72 4.72,4.72h9.47c0.71,0 1.3,-0.6 1.3,-1.3c0,-0.71 -0.59,-1.3 -1.3,-1.3h-10.18v-4.2h10.18c3.05,0 5.54,2.45 5.54,5.5c0,3.04 -2.49,5.49 -5.54,5.49z" fill="#A62F00"/>
<path id="Vector_125" d="M107.5924,25.8529c2.6,0 4.72,-2.12 4.72,-4.72c0,-2.56 -2.12,-4.68 -4.72,-4.68h-6.53c-2.6,0 -4.72,2.12 -4.72,4.68c0,2.6 2.12,4.72 4.72,4.72zM107.5924,12.2229c4.94,0 8.92,4.01 8.92,8.91c0,4.94 -3.98,8.91 -8.92,8.91h-6.53c-4.94,0 -8.92,-3.97 -8.92,-8.91c0,-4.9 3.98,-8.91 8.92,-8.91z" fill="#A62F00"/>
<path id="Vector_126" d="M74.9624,25.1429c0,0.37 0.33,0.71 0.7,0.71h15.71v4.19h-15.71c-2.71,0 -4.9,-2.19 -4.9,-4.9v-13.04h4.2z" fill="#A62F00"/>
<path id="Vector_127" d="M284.1224,12.1029c0,1.2 -0.96,2.16 -2.15,2.16c-1.19,0 -2.16,-0.96 -2.16,-2.16c0,-1.19 0.97,-2.15 2.16,-2.15c1.19,0 2.15,0.96 2.15,2.15z" fill="#A62F00"/>
</g></svg>