<svg viewBox="0 0 215 40" fill="none" xmlns="http://www.w3.org/2000/svg" xmlns:xlink="http://www.w3.org/1999/xlink" x="0" y="0"><defs><clipPath id="clip5_1_3">
<rect width="215" height="40" fill="white" transform="translate(0.00009999999997489795, 0.0028999999999541615)"/>
</clipPath></defs><g id="Frame_2" clip-path="url(#clip5_1_3)">
<path id="Vector_86" d="M20.0001,0.0029c5.304,0 10.392,2.1 14.143,5.85c0.673,0.68 1.292,1.39 1.857,2.15h-16c-3.183,0 -6.235,1.26 -8.485,3.51c-2.251,2.25 -3.515,5.3 -3.515,8.49h12l16.91,-10.68c1.256,1.98 2.151,4.18 2.645,6.48l-7.555,4.2h8l-0.006,0.49c-0.127,5.13 -2.218,10.02 -5.851,13.65c-3.751,3.75 -8.839,5.86 -14.143,5.86c-5.304,0 -10.392,-2.11 -14.143,-5.86c-0.673,-0.67 -1.292,-1.39 -1.857,-2.14h16c3.183,0 6.235,-1.27 8.485,-3.52c2.11,-2.11 3.353,-4.92 3.5,-7.89l0.015,-0.59h-12l-16.91,10.68c-1.256,-1.99 -2.149,-4.19 -2.643,-6.49l7.553,-4.19h-8c0,-5.31 2.107,-10.39 5.857,-14.15c3.751,-3.75 8.839,-5.85 14.143,-5.85z" fill="#0094F7"/>
<path id="Vector_87" d="M92.2741,30.4429c0.94,1.76 2.755,2.87 5.093,2.87c2.338,0 4.152,-1.11 5.092,-2.87h3.518c-1.164,3.52 -4.394,5.88 -8.61,5.88c-4.216,0 -7.447,-2.36 -8.61,-5.88z" fill="#003253"/>
<path id="Vector_88" fill-rule="evenodd" clip-rule="evenodd" d="M143.5031,11.7629c5.36,0 9.115,3.68 9.115,8.98c0,5.59 -4.165,8.77 -8.569,8.77c-2.731,0 -5.052,-1.23 -6.281,-3.41v10.17h-3.244v-15.5c0,-5.5 3.756,-9.01 8.979,-9.01zM143.5371,14.7629c-3.448,0 -5.769,2.46 -5.769,5.87c0,3.42 2.321,5.87 5.769,5.87c3.482,0 5.804,-2.45 5.804,-5.87c0,-3.41 -2.322,-5.87 -5.804,-5.87z" fill="#003253"/>
<path id="Vector_89" fill-rule="evenodd" clip-rule="evenodd" d="M78.0591,11.7629c5.325,0 9.08,3.75 9.081,8.87c0,5.12 -3.756,8.88 -9.081,8.88c-5.326,0 -9.082,-3.76 -9.082,-8.88c0.001,-5.12 3.756,-8.87 9.082,-8.87zM78.0591,14.7629c-3.483,0 -5.804,2.46 -5.804,5.87c0,3.42 2.321,5.87 5.804,5.87c3.482,0 5.803,-2.45 5.803,-5.87c0,-3.41 -2.321,-5.87 -5.803,-5.87z" fill="#003253"/>
<path id="Vector_90" fill-rule="evenodd" clip-rule="evenodd" d="M97.7271,11.7629h8.821v2.91h-2.275c1.378,1.54 2.175,3.61 2.175,5.96c0,5.12 -3.755,8.88 -9.081,8.88c-5.326,0 -9.081,-3.76 -9.081,-8.88c0,-5.12 3.755,-8.87 9.081,-8.87c0.121,0 0.241,0 0.36,0zM97.3671,14.7629c-3.482,0 -5.803,2.46 -5.804,5.87c0,3.42 2.322,5.87 5.804,5.87c3.482,0 5.803,-2.45 5.803,-5.87c0,-3.41 -2.321,-5.87 -5.803,-5.87z" fill="#003253"/>
<path id="Vector_91" fill-rule="evenodd" clip-rule="evenodd" d="M116.6751,11.7629c5.325,0 9.081,3.75 9.081,8.87c0,5.12 -3.755,8.88 -9.081,8.88c-5.326,0 -9.081,-3.76 -9.081,-8.88c0,-5.12 3.755,-8.87 9.081,-8.87zM116.6751,14.7629c-3.482,0 -5.804,2.46 -5.804,5.87c0,3.42 2.322,5.87 5.804,5.87c3.482,0 5.804,-2.45 5.804,-5.87c-0.001,-3.41 -2.322,-5.87 -5.804,-5.87z" fill="#003253"/>
<path id="Vector_92" d="M160.8161,11.7629c4.029,0 6.521,2.28 6.589,5.19h-3.21c-0.102,-1.3 -1.296,-2.26 -3.344,-2.26c-2.151,0 -3.38,1.03 -3.38,2.36c0,1.6 1.775,1.77 3.857,2.05c2.936,0.37 6.52,0.92 6.521,4.78c0,3.41 -2.765,5.63 -6.998,5.63c-4.234,0 -6.897,-2.25 -6.999,-5.33h3.277c0.068,1.4 1.366,2.39 3.722,2.39c2.457,0 3.72,-1.06 3.72,-2.39c0,-1.6 -1.775,-1.81 -3.891,-2.08c-2.936,-0.37 -6.487,-0.92 -6.487,-4.78c0,-3.31 2.595,-5.56 6.623,-5.56z" fill="#003253"/>
<path id="Vector_93" d="M172.9831,21.0129c0,3.65 2.015,5.49 5.087,5.49c3.073,0 5.087,-1.84 5.087,-5.49v-8.81h3.243v8.81c0,5.6 -3.345,8.5 -8.33,8.5c-4.984,0 -8.33,-2.87 -8.33,-8.5v-8.81h3.243z" fill="#003253"/>
<path id="Vector_94" d="M55.4821,25.8629h12.53v3.21h-16.012v-22.33h3.482z" fill="#003253"/>
<path id="Vector_95" d="M131.4421,29.0729h-3.243v-16.87h3.243z" fill="#003253"/>
<path id="Vector_96" d="M207.7601,11.7629c3.96,0 6.965,2.39 6.965,7.54v9.77h-3.244v-9.77c0,-3.14 -1.672,-4.54 -4.028,-4.54c-2.287,0 -3.995,1.47 -3.995,4.54v9.77h-3.243v-9.77c0,-3.07 -1.741,-4.54 -4.028,-4.54c-2.356,0 -4.029,1.4 -4.029,4.54v9.77h-3.243v-9.77c0,-5.15 3.005,-7.54 6.965,-7.54c2.594,0 4.779,1.16 5.939,3.34c1.161,-2.18 3.312,-3.34 5.941,-3.34z" fill="#003253"/>
<path id="Vector_97" d="M129.8041,5.0029c1.297,0 2.253,0.95 2.254,2.25c0,1.3 -0.957,2.29 -2.254,2.29c-1.297,0 -2.253,-0.99 -2.253,-2.29c0,-1.3 0.956,-2.25 2.253,-2.25z" fill="#003253"/>
</g></svg>