<svg viewBox="0 0 216 40" fill="none" xmlns="http://www.w3.org/2000/svg" xmlns:xlink="http://www.w3.org/1999/xlink" x="0" y="0"><defs><clipPath id="clip4_1_3">
<rect width="216" height="40" fill="white" transform="translate(0, 0.0028999999999541615)"/>
</clipPath></defs><g id="Frame" clip-path="url(#clip4_1_3)">
<path id="Vector_75" d="M20,28.4329c-3.4694,0 -6.6965,1.78 -8.5479,4.72l-2.2978,3.64l0.8828,0.56c0.2761,0.16 0.5566,0.31 0.8408,0.46l2.2657,-3.59c1.4849,-2.36 4.0735,-3.79 6.8564,-3.79c2.783,0 5.3714,1.43 6.8564,3.79l2.2647,3.59c0.2842,-0.15 0.5647,-0.3 0.8408,-0.46l0.8838,-0.56l-2.2978,-3.64c-1.8515,-2.94 -5.0784,-4.72 -8.5479,-4.72zM20.123,36.4429l-0.123,-0.01c-0.6145,0.01 -1.1761,0.34 -1.4688,0.87l-0.0546,0.11l-1.1075,2.42c0.6971,0.09 1.4053,0.15 2.1231,0.17l0.5078,-1.11l0.5068,1.11c0.7181,-0.02 1.4267,-0.08 2.1241,-0.17l-1.1065,-2.42l-0.0547,-0.11c-0.2731,-0.49 -0.7807,-0.82 -1.3467,-0.86zM21,12.4029v-12.4h-2v12.4l-3.2109,-11.98l-1.9317,0.52l3.21,11.98l-6.2012,-10.74l-1.7324,1l6.2012,10.74l-8.7696,-8.77l-1.415,1.41l8.7695,8.77l-10.7402,-6.2l-1,1.74l10.7412,6.2l-11.9805,-3.21l-0.5175,1.93l11.9824,3.21h-12.4053v2h12.4053l-11.9824,3.21l0.5175,1.93l11.9805,-3.21l-10.7412,6.21l1,1.73l10.7402,-6.2l-8.7695,8.77l1.415,1.41l6.5562,-6.56c0.5624,-0.56 0.8784,-1.32 0.8784,-2.12v-5.74c0,-3.31 2.6865,-6 6,-6c3.3137,0 6,2.69 6,6v5.74c0,0.8 0.316,1.56 0.8785,2.12l6.5561,6.56l1.415,-1.41l-8.7695,-8.77l10.7402,6.2l1,-1.73l-10.7412,-6.21l11.9805,3.21l0.5175,-1.93l-11.9814,-3.21h12.4043v-2h-12.4053l11.9824,-3.21l-0.5175,-1.93l-11.9805,3.21l10.7412,-6.2l-1,-1.74l-10.7422,6.2l8.7715,-8.77l-1.4141,-1.41l-8.7714,8.77l6.2021,-10.74l-1.7324,-1l-6.2022,10.74l3.211,-11.98l-1.9317,-0.52zM20,32.4329c-1.9878,0 -3.8208,1.08 -4.793,2.81l-2.0049,3.58c0.6386,0.23 1.2921,0.43 1.959,0.59l1.7901,-3.19c0.6182,-1.1 1.7845,-1.79 3.0488,-1.79c1.2645,0 2.4305,0.69 3.0488,1.79l1.7891,3.19c0.6669,-0.16 1.3204,-0.36 1.959,-0.59l-2.0039,-3.58c-0.9722,-1.73 -2.8051,-2.81 -4.793,-2.81z" fill="#FF2121"/>
<path id="Vector_76" d="M208.695,13.7129c1.395,0 2.639,0.29 3.733,0.87c1.116,0.57 1.984,1.42 2.607,2.55c0.643,1.13 0.965,2.5 0.965,4.1v10.39h-3.636v-9.85c0,-1.58 -0.397,-2.78 -1.191,-3.61c-0.794,-0.86 -1.877,-1.28 -3.25,-1.28c-1.373,0 -2.467,0.42 -3.282,1.28c-0.794,0.83 -1.191,2.03 -1.191,3.61v9.85h-3.636v-9.85c0,-1.58 -0.397,-2.78 -1.191,-3.61c-0.794,-0.86 -1.877,-1.28 -3.25,-1.28c-1.373,0 -2.467,0.42 -3.282,1.28c-0.794,0.83 -1.191,2.03 -1.191,3.61v9.85h-3.668v-17.62h3.668v2.01c0.601,-0.72 1.362,-1.29 2.285,-1.69c0.922,-0.41 1.909,-0.61 2.96,-0.61c1.416,0 2.682,0.3 3.797,0.9c1.116,0.59 1.974,1.46 2.575,2.59c0.536,-1.07 1.373,-1.91 2.51,-2.53c1.137,-0.64 2.36,-0.96 3.668,-0.96z" fill="#540000"/>
<path id="Vector_77" d="M183.518,14.0029v17.62h-3.669v-2.08c-0.579,0.73 -1.34,1.3 -2.284,1.73c-0.923,0.4 -1.91,0.61 -2.961,0.61c-1.394,0 -2.649,-0.29 -3.765,-0.87c-1.094,-0.57 -1.963,-1.43 -2.606,-2.56c-0.623,-1.13 -0.934,-2.49 -0.934,-4.09v-10.36h3.637v9.82c0,1.57 0.397,2.79 1.19,3.64c0.794,0.83 1.877,1.25 3.25,1.25c1.373,0 2.457,-0.42 3.251,-1.25c0.815,-0.85 1.222,-2.07 1.222,-3.64v-9.82z" fill="#540000"/>
<path id="Vector_78" d="M157.833,31.9129c-1.395,0 -2.65,-0.25 -3.765,-0.74c-1.094,-0.51 -1.963,-1.19 -2.607,-2.05c-0.643,-0.87 -0.987,-1.84 -1.029,-2.9h3.797c0.064,0.74 0.418,1.37 1.062,1.88c0.665,0.49 1.491,0.74 2.477,0.74c1.03,0 1.824,-0.19 2.382,-0.58c0.579,-0.4 0.869,-0.92 0.869,-1.53c0,-0.66 -0.322,-1.15 -0.966,-1.47c-0.622,-0.32 -1.62,-0.68 -2.993,-1.06c-1.33,-0.36 -2.413,-0.71 -3.25,-1.05c-0.836,-0.35 -1.566,-0.87 -2.188,-1.57c-0.601,-0.71 -0.901,-1.63 -0.901,-2.78c0,-0.94 0.279,-1.79 0.837,-2.56c0.558,-0.79 1.351,-1.41 2.381,-1.86c1.051,-0.44 2.253,-0.67 3.604,-0.67c2.017,0 3.636,0.51 4.859,1.54c1.245,1 1.91,2.37 1.995,4.12h-3.668c-0.064,-0.79 -0.386,-1.42 -0.965,-1.88c-0.58,-0.47 -1.363,-0.71 -2.35,-0.71c-0.965,0 -1.705,0.18 -2.22,0.55c-0.515,0.36 -0.772,0.84 -0.772,1.43c0,0.47 0.171,0.87 0.515,1.19c0.343,0.32 0.761,0.57 1.255,0.77c0.493,0.17 1.222,0.39 2.188,0.67c1.287,0.34 2.338,0.69 3.153,1.05c0.837,0.34 1.556,0.85 2.156,1.54c0.601,0.68 0.912,1.58 0.934,2.71c0,1.01 -0.279,1.9 -0.837,2.69c-0.558,0.79 -1.352,1.41 -2.381,1.86c-1.009,0.44 -2.199,0.67 -3.572,0.67z" fill="#540000"/>
<path id="Vector_79" d="M134.382,16.5929c0.623,-0.81 1.47,-1.49 2.543,-2.05c1.072,-0.55 2.284,-0.83 3.636,-0.83c1.545,0 2.95,0.39 4.215,1.15c1.288,0.75 2.296,1.8 3.025,3.17c0.73,1.36 1.094,2.93 1.094,4.7c0,1.77 -0.364,3.36 -1.094,4.76c-0.729,1.39 -1.737,2.48 -3.025,3.27c-1.265,0.76 -2.67,1.15 -4.215,1.15c-1.352,0 -2.553,-0.27 -3.604,-0.8c-1.051,-0.56 -1.909,-1.24 -2.575,-2.05v10.94h-3.668v-26h3.668zM145.163,22.7329c0,-1.22 -0.258,-2.26 -0.773,-3.13c-0.493,-0.9 -1.158,-1.57 -1.995,-2.02c-0.815,-0.47 -1.695,-0.7 -2.639,-0.7c-0.922,0 -1.802,0.23 -2.638,0.7c-0.815,0.47 -1.481,1.15 -1.995,2.05c-0.494,0.89 -0.741,1.95 -0.741,3.16c0,1.22 0.247,2.28 0.741,3.2c0.514,0.9 1.18,1.58 1.995,2.05c0.836,0.47 1.716,0.7 2.638,0.7c0.944,0 1.824,-0.23 2.639,-0.7c0.837,-0.49 1.502,-1.2 1.995,-2.11c0.515,-0.92 0.773,-1.99 0.773,-3.2z" fill="#540000"/>
<path id="Vector_80" d="M125.222,11.6729c-0.665,0 -1.223,-0.23 -1.673,-0.68c-0.451,-0.44 -0.676,-1 -0.676,-1.66c0,-0.66 0.225,-1.21 0.676,-1.66c0.45,-0.45 1.008,-0.67 1.673,-0.67c0.644,0 1.191,0.22 1.641,0.67c0.451,0.45 0.676,1 0.676,1.66c0,0.66 -0.225,1.22 -0.676,1.66c-0.45,0.45 -0.997,0.68 -1.641,0.68zM127.024,14.0029v17.62h-3.668v-17.62z" fill="#540000"/>
<path id="Vector_81" d="M111.652,31.9129c-1.673,0 -3.186,-0.38 -4.537,-1.12c-1.352,-0.77 -2.414,-1.84 -3.186,-3.2c-0.772,-1.39 -1.158,-2.98 -1.158,-4.8c0,-1.79 0.396,-3.38 1.19,-4.76c0.794,-1.39 1.877,-2.45 3.25,-3.2c1.373,-0.74 2.907,-1.12 4.602,-1.12c1.695,0 3.229,0.38 4.602,1.12c1.373,0.75 2.456,1.81 3.25,3.2c0.794,1.38 1.19,2.97 1.19,4.76c0,1.79 -0.407,3.38 -1.222,4.77c-0.816,1.38 -1.931,2.46 -3.347,3.23c-1.394,0.74 -2.939,1.12 -4.634,1.12zM111.652,28.7429c0.944,0 1.824,-0.22 2.639,-0.67c0.837,-0.45 1.512,-1.12 2.027,-2.01c0.515,-0.9 0.772,-1.99 0.772,-3.27c0,-1.28 -0.246,-2.35 -0.74,-3.23c-0.493,-0.89 -1.147,-1.56 -1.963,-2.01c-0.815,-0.45 -1.694,-0.67 -2.638,-0.67c-0.944,0 -1.824,0.22 -2.639,0.67c-0.794,0.45 -1.427,1.12 -1.899,2.01c-0.472,0.88 -0.708,1.95 -0.708,3.23c0,1.9 0.483,3.37 1.449,4.42c0.986,1.02 2.22,1.53 3.7,1.53z" fill="#540000"/>
<path id="Vector_82" d="M92.258,31.9129c-1.674,0 -3.186,-0.38 -4.538,-1.12c-1.351,-0.77 -2.413,-1.84 -3.185,-3.2c-0.773,-1.39 -1.159,-2.98 -1.159,-4.8c0,-1.79 0.397,-3.38 1.191,-4.76c0.793,-1.39 1.877,-2.45 3.25,-3.2c1.373,-0.74 2.907,-1.12 4.602,-1.12c1.694,0 3.228,0.38 4.601,1.12c1.373,0.75 2.457,1.81 3.25,3.2c0.794,1.38 1.191,2.97 1.191,4.76c0,1.79 -0.408,3.38 -1.223,4.77c-0.815,1.38 -1.931,2.46 -3.347,3.23c-1.394,0.74 -2.939,1.12 -4.633,1.12zM92.258,28.7429c0.944,0 1.823,-0.22 2.638,-0.67c0.837,-0.45 1.513,-1.12 2.028,-2.01c0.515,-0.9 0.772,-1.99 0.772,-3.27c0,-1.28 -0.247,-2.35 -0.74,-3.23c-0.494,-0.89 -1.148,-1.56 -1.963,-2.01c-0.815,-0.45 -1.695,-0.67 -2.639,-0.67c-0.944,0 -1.823,0.22 -2.639,0.67c-0.793,0.45 -1.426,1.12 -1.898,2.01c-0.472,0.88 -0.708,1.95 -0.708,3.23c0,1.9 0.483,3.37 1.448,4.42c0.987,1.02 2.22,1.53 3.701,1.53z" fill="#540000"/>
<path id="Vector_83" d="M72.863,31.9129c-1.673,0 -3.186,-0.38 -4.537,-1.12c-1.352,-0.77 -2.414,-1.84 -3.186,-3.2c-0.772,-1.39 -1.158,-2.98 -1.158,-4.8c0,-1.79 0.397,-3.38 1.19,-4.76c0.794,-1.39 1.877,-2.45 3.25,-3.2c1.373,-0.74 2.907,-1.12 4.602,-1.12c1.695,0 3.229,0.38 4.602,1.12c1.373,0.75 2.456,1.81 3.25,3.2c0.794,1.38 1.191,2.97 1.191,4.76c0,1.79 -0.408,3.38 -1.223,4.77c-0.816,1.38 -1.931,2.46 -3.347,3.23c-1.394,0.74 -2.939,1.12 -4.634,1.12zM72.863,28.7429c0.944,0 1.824,-0.22 2.639,-0.67c0.837,-0.45 1.512,-1.12 2.027,-2.01c0.515,-0.9 0.773,-1.99 0.773,-3.27c0,-1.28 -0.247,-2.35 -0.741,-3.23c-0.493,-0.89 -1.147,-1.56 -1.962,-2.01c-0.816,-0.45 -1.695,-0.67 -2.639,-0.67c-0.944,0 -1.824,0.22 -2.639,0.67c-0.794,0.45 -1.427,1.12 -1.899,2.01c-0.471,0.88 -0.707,1.95 -0.707,3.23c0,1.9 0.482,3.37 1.448,4.42c0.986,1.02 2.22,1.53 3.7,1.53z" fill="#540000"/>
<path id="Vector_84" d="M55.668,28.6829h7.563v2.94h-11.231v-22.22h3.668z" fill="#540000"/>
<path id="Vector_85" d="M83.307,32.4029c0.174,1.09 0.515,2.1 1.023,3.01c0.773,1.36 1.835,2.43 3.186,3.19c1.352,0.75 2.864,1.12 4.537,1.12c1.695,0 3.24,-0.37 4.634,-1.12c1.416,-0.76 2.532,-1.84 3.347,-3.22c0.533,-0.91 0.892,-1.9 1.077,-2.98h-3.815c-0.128,0.54 -0.321,1.03 -0.577,1.47c-0.514,0.9 -1.19,1.57 -2.027,2.02c-0.815,0.44 -1.695,0.67 -2.639,0.67c-1.48,0 -2.713,-0.51 -3.7,-1.54c-0.638,-0.69 -1.065,-1.56 -1.281,-2.62z" fill="#540000"/>
</g></svg>