<svg viewBox="0 0 13.9733 8.96" fill="none" xmlns="http://www.w3.org/2000/svg" xmlns:xlink="http://www.w3.org/1999/xlink" x="0" y="0"><path id="Vector" d="M-0.0033,4.4779c0,-0.14 0.05,-0.26 0.14,-0.34c0.09,-0.09 0.2,-0.14 0.34,-0.14h11.79l-3.15,-3.14c-0.1,-0.11 -0.16,-0.24 -0.16,-0.38c0,-0.14 0.06,-0.26 0.16,-0.34c0.11,-0.09 0.23,-0.14 0.38,-0.14c0.14,0 0.26,0.04 0.37,0.11l4,4c0.07,0.11 0.11,0.23 0.11,0.37c0,0.14 -0.04,0.27 -0.11,0.38l-4,4c-0.11,0.07 -0.23,0.1 -0.37,0.1c-0.15,0 -0.27,-0.04 -0.38,-0.13c-0.1,-0.09 -0.16,-0.21 -0.16,-0.35c0,-0.14 0.06,-0.26 0.16,-0.37l3.15,-3.15h-11.79c-0.14,0 -0.25,-0.04 -0.34,-0.13c-0.09,-0.09 -0.14,-0.21 -0.14,-0.35z" fill="currentColor"/></svg>