<svg viewBox="0 0 14 14" fill="none" xmlns="http://www.w3.org/2000/svg" xmlns:xlink="http://www.w3.org/1999/xlink" x="0" y="0"><path id="Vector_6" d="M7,3.0817c0,-0.13 -0.0389,-0.24 -0.1167,-0.33c-0.0777,-0.09 -0.1789,-0.14 -0.3033,-0.14c-0.1245,0 -0.2333,0.05 -0.3267,0.14c-0.0933,0.09 -0.14,0.2 -0.14,0.33v4.8c0,0.16 0.0778,0.28 0.2334,0.38l3.08,1.72c0.0933,0.07 0.1944,0.08 0.3033,0.05c0.1089,-0.03 0.1944,-0.1 0.2567,-0.21c0.0622,-0.11 0.0777,-0.22 0.0466,-0.33c-0.0311,-0.1 -0.0933,-0.19 -0.1866,-0.25l-2.8467,-1.64zM7,14.0017c1.2756,0 2.45,-0.31 3.5233,-0.94c1.0734,-0.62 1.9211,-1.47 2.5434,-2.54c0.6222,-1.07 0.9333,-2.25 0.9333,-3.52c0,-1.28 -0.3111,-2.45 -0.9333,-3.53c-0.6223,-1.07 -1.47,-1.92 -2.5434,-2.54c-1.0733,-0.62 -2.2477,-0.93 -3.5233,-0.93c-1.2756,0 -2.45,0.31 -3.5233,0.93c-1.0734,0.62 -1.9212,1.47 -2.5434,2.54c-0.6222,1.08 -0.9333,2.25 -0.9333,3.53c0,1.27 0.3111,2.45 0.9333,3.52c0.6222,1.07 1.47,1.92 2.5434,2.54c1.0733,0.63 2.2477,0.94 3.5233,0.94zM13.1133,7.0017c0,1.12 -0.2722,2.14 -0.8166,3.08c-0.5445,0.93 -1.2834,1.67 -2.2167,2.21c-0.9333,0.55 -1.96,0.82 -3.08,0.82c-1.12,0 -2.1467,-0.27 -3.08,-0.82c-0.9333,-0.54 -1.6722,-1.28 -2.2167,-2.21c-0.5444,-0.94 -0.8166,-1.96 -0.8166,-3.08c0,-1.12 0.2722,-2.15 0.8166,-3.08c0.5445,-0.94 1.2834,-1.67 2.2167,-2.22c0.9333,-0.54 1.96,-0.82 3.08,-0.82c1.12,0 2.1467,0.28 3.08,0.82c0.9333,0.55 1.6722,1.28 2.2167,2.22c0.5444,0.93 0.8166,1.96 0.8166,3.08z" fill="currentColor"/></svg>