<svg viewBox="0 0 17.6 17.6" fill="none" xmlns="http://www.w3.org/2000/svg" xmlns:xlink="http://www.w3.org/1999/xlink" x="0" y="0"><path id="Vector_2" d="M17.6,8.8627c0,-1.61 -0.391,-3.08 -1.173,-4.43c-0.783,-1.35 -1.848,-2.43 -3.198,-3.23c-1.349,-0.8 -2.825,-1.2 -4.429,-1.2c-1.604,0 -3.08,0.4 -4.429,1.2c-1.35,0.8 -2.415,1.88 -3.198,3.23c-0.782,1.35 -1.173,2.82 -1.173,4.43c0,1.44 0.323,2.79 0.968,4.04c0.645,1.26 1.535,2.29 2.669,3.11c1.135,0.82 2.406,1.35 3.814,1.59v-6.16h-2.288v-2.58h2.288v-1.94c0,-1.1 0.293,-1.95 0.88,-2.55c0.586,-0.61 1.388,-0.91 2.405,-0.91c0.391,0 0.841,0.02 1.349,0.06l0.646,0.11v2.17h-1.115c-0.508,0 -0.88,0.13 -1.115,0.39c-0.234,0.25 -0.352,0.59 -0.352,1.02v1.65h2.464l-0.41,2.58h-2.054v6.16c1.408,-0.24 2.679,-0.77 3.814,-1.59c1.134,-0.82 2.024,-1.85 2.669,-3.11c0.645,-1.25 0.968,-2.6 0.968,-4.04z" fill="currentColor"/></svg>