<svg viewBox="0 0 17.6 17.6" fill="none" xmlns="http://www.w3.org/2000/svg" xmlns:xlink="http://www.w3.org/1999/xlink" x="0" y="0"><path id="Vector_4" d="M0,1.2327c0,-0.31 0.127,-0.6 0.381,-0.85c0.255,-0.26 0.558,-0.38 0.91,-0.38h15.018c0.352,0 0.655,0.12 0.91,0.38c0.254,0.25 0.381,0.54 0.381,0.85v15.13c0,0.32 -0.127,0.6 -0.381,0.86c-0.255,0.25 -0.558,0.38 -0.91,0.38h-15.018c-0.352,0 -0.655,-0.13 -0.91,-0.38c-0.254,-0.26 -0.381,-0.54 -0.381,-0.86zM5.456,14.7227v-7.92h-2.64v7.92zM4.107,5.6927c0.469,0 0.841,-0.13 1.114,-0.38c0.274,-0.26 0.401,-0.58 0.382,-0.97c-0.02,-0.39 -0.157,-0.73 -0.411,-1c-0.254,-0.27 -0.606,-0.41 -1.056,-0.41c-0.45,0 -0.812,0.14 -1.085,0.41c-0.274,0.27 -0.411,0.61 -0.411,1c0,0.39 0.137,0.71 0.411,0.97c0.273,0.25 0.625,0.38 1.056,0.38zM9.504,14.7227v-4.46c0,-0.27 0.039,-0.49 0.117,-0.64c0.079,-0.24 0.235,-0.45 0.47,-0.65c0.234,-0.19 0.528,-0.29 0.88,-0.29c0.469,0 0.811,0.16 1.026,0.47c0.215,0.31 0.323,0.76 0.323,1.35v4.22h2.64v-4.57c0,-1.18 -0.284,-2.07 -0.851,-2.67c-0.567,-0.61 -1.3,-0.91 -2.2,-0.91c-0.625,0 -1.153,0.15 -1.584,0.47c-0.313,0.19 -0.586,0.49 -0.821,0.88v-1.12h-2.64c0.039,0.32 0.039,1.72 0,4.23v3.69z" fill="currentColor"/></svg>