<svg viewBox="0 0 16.5 21" fill="none" xmlns="http://www.w3.org/2000/svg" xmlns:xlink="http://www.w3.org/1999/xlink" x="0" y="0"><path id="Vector_71" d="M8.2504,-0.0019c-2.188,0 -4.285,0.87 -5.831,2.42c-1.547,1.55 -2.417,3.64 -2.419,5.83c-0.003,1.79 0.581,3.53 1.662,4.95c0,0 0.225,0.3 0.261,0.34l6.327,7.46l6.329,-7.46c0.033,-0.04 0.259,-0.34 0.259,-0.34v0c1.081,-1.42 1.664,-3.16 1.662,-4.95c-0.003,-2.19 -0.873,-4.28 -2.42,-5.83c-1.546,-1.55 -3.643,-2.42 -5.83,-2.42zM8.2504,11.2481c-0.594,0 -1.174,-0.17 -1.667,-0.5c-0.493,-0.33 -0.878,-0.8 -1.105,-1.35c-0.227,-0.55 -0.287,-1.15 -0.171,-1.73c0.116,-0.59 0.402,-1.12 0.821,-1.54c0.42,-0.42 0.954,-0.7 1.536,-0.82c0.582,-0.12 1.185,-0.06 1.734,0.17c0.548,0.23 1.016,0.61 1.346,1.11c0.33,0.49 0.506,1.07 0.506,1.66c-0.001,0.8 -0.318,1.56 -0.88,2.12c-0.563,0.56 -1.325,0.88 -2.12,0.88z" fill="currentColor"/></svg>