<svg viewBox="0 0 16 12" fill="none" xmlns="http://www.w3.org/2000/svg" xmlns:xlink="http://www.w3.org/1999/xlink" x="0" y="0"><path id="Vector_5" d="M0,2.0247c0,-0.57 0.196,-1.05 0.587,-1.44c0.391,-0.39 0.871,-0.59 1.44,-0.59h12c0.533,0 0.995,0.2 1.386,0.59c0.391,0.39 0.587,0.87 0.587,1.44v8c0,0.57 -0.196,1.04 -0.587,1.41c-0.391,0.38 -0.871,0.56 -1.44,0.56h-11.946c-0.569,0 -1.049,-0.18 -1.44,-0.56c-0.391,-0.37 -0.587,-0.84 -0.587,-1.41zM2.027,1.0147c-0.285,0 -0.525,0.1 -0.72,0.29c-0.196,0.2 -0.294,0.44 -0.294,0.72v0.21l6.987,4.22l6.987,-4.22v-0.21c0,-0.28 -0.098,-0.52 -0.294,-0.72c-0.195,-0.19 -0.417,-0.29 -0.666,-0.29zM14.987,3.4147l-4.694,2.82l4.694,2.88zM14.987,10.2947l-5.654,-3.47l-1.333,0.8l-1.333,-0.8l-5.654,3.47c0.071,0.21 0.196,0.39 0.374,0.53c0.177,0.14 0.391,0.21 0.64,0.21h12c0.213,0 0.409,-0.07 0.586,-0.21c0.178,-0.14 0.303,-0.32 0.374,-0.53zM1.013,9.1147l4.694,-2.88l-4.694,-2.82z" fill="currentColor"/></svg>