<svg viewBox="0 0 24 24" fill="none" xmlns="http://www.w3.org/2000/svg" xmlns:xlink="http://www.w3.org/1999/xlink" x="0" y="0"><g id="bxs:phone-call">
<path id="Vector_72" d="M20.0004,10.9981h2c0,-5.13 -3.873,-9 -9.01,-9v2c4.062,0 7.01,2.94 7.01,7z" fill="currentColor"/>
<path id="Vector_73" d="M13.0004,7.9981c2.103,0 3,0.9 3,3h2c0,-3.22 -1.775,-5 -5,-5zM16.4224,13.4381c-0.193,-0.17 -0.445,-0.26 -0.705,-0.25c-0.259,0 -0.505,0.11 -0.686,0.3l-2.393,2.46c-0.576,-0.11 -1.734,-0.47 -2.926,-1.66c-1.192,-1.19 -1.553,-2.36 -1.66,-2.93l2.459,-2.39c0.186,-0.18 0.295,-0.43 0.303,-0.69c0.008,-0.26 -0.086,-0.51 -0.26,-0.7l-3.695,-4.07c-0.175,-0.19 -0.419,-0.3 -0.678,-0.32c-0.26,-0.02 -0.516,0.07 -0.713,0.24l-2.17,1.86c-0.173,0.17 -0.276,0.4 -0.29,0.65c-0.015,0.25 -0.301,6.17 4.291,10.76c4.006,4.01 9.024,4.3 10.406,4.3c0.202,0 0.326,0 0.359,-0.01c0.244,-0.01 0.475,-0.11 0.648,-0.29l1.86,-2.17c0.169,-0.2 0.255,-0.45 0.239,-0.71c-0.016,-0.26 -0.133,-0.5 -0.325,-0.68z" fill="currentColor"/>
</g></svg>