<svg viewBox="0 0 17.6 14.2799" fill="none" xmlns="http://www.w3.org/2000/svg" xmlns:xlink="http://www.w3.org/1999/xlink" x="0" y="0"><path id="Vector_3" d="M5.515,14.2774c2.112,0 3.989,-0.53 5.632,-1.58c1.486,-0.98 2.64,-2.27 3.461,-3.87c0.782,-1.57 1.173,-3.17 1.173,-4.81v-0.47c0.704,-0.51 1.311,-1.14 1.819,-1.88c-0.665,0.31 -1.349,0.51 -2.053,0.59c0.782,-0.47 1.31,-1.14 1.584,-2c-0.743,0.43 -1.506,0.72 -2.288,0.88c-0.587,-0.59 -1.281,-0.95 -2.083,-1.08c-0.802,-0.14 -1.564,-0.01 -2.288,0.38c-0.724,0.39 -1.252,0.96 -1.584,1.7c-0.332,0.74 -0.401,1.5 -0.205,2.29c-1.447,-0.08 -2.826,-0.44 -4.136,-1.09c-1.311,-0.64 -2.415,-1.53 -3.315,-2.67c-0.469,0.82 -0.596,1.69 -0.381,2.61c0.215,0.92 0.713,1.65 1.496,2.2c-0.587,-0.04 -1.135,-0.19 -1.643,-0.47v0.06c0,0.86 0.274,1.62 0.821,2.29c0.548,0.66 1.232,1.08 2.054,1.23c-0.313,0.12 -0.626,0.18 -0.939,0.18c-0.235,0 -0.45,-0.02 -0.645,-0.06c0.234,0.7 0.655,1.29 1.261,1.76c0.606,0.47 1.3,0.7 2.083,0.7c-0.626,0.51 -1.33,0.9 -2.112,1.18c-0.783,0.27 -1.565,0.41 -2.347,0.41c-0.313,0 -0.606,-0.02 -0.88,-0.06c1.682,1.05 3.52,1.58 5.515,1.58z" fill="currentColor"/></svg>