<svg viewBox="0 0 14 10.4774" fill="none" xmlns="http://www.w3.org/2000/svg" xmlns:xlink="http://www.w3.org/1999/xlink" x="0" y="0"><path id="Vector_7" d="M13.1129,10.4815c0.094,0 0.172,0 0.234,0c0.186,-0.07 0.342,-0.16 0.466,-0.28c0.125,-0.13 0.187,-0.32 0.187,-0.56c0,-0.41 -0.124,-0.84 -0.373,-1.31c-0.311,-0.62 -0.747,-1.12 -1.307,-1.49c-0.747,-0.47 -1.649,-0.7 -2.707,-0.7c-1.057,0 -1.944,0.23 -2.66,0.7c-0.591,0.37 -1.042,0.87 -1.353,1.49c-0.218,0.47 -0.327,0.9 -0.327,1.31c0,0.24 0.063,0.43 0.187,0.56c0.125,0.12 0.265,0.21 0.42,0.28h0.233zM6.1599,9.6415c-0.031,0 -0.047,0 -0.047,0c0,-0.19 0.047,-0.39 0.14,-0.61c0.125,-0.34 0.312,-0.65 0.56,-0.93c0.623,-0.72 1.564,-1.09 2.824,-1.1c1.26,-0.02 2.201,0.35 2.823,1.1c0.218,0.28 0.389,0.59 0.513,0.93c0.094,0.22 0.14,0.42 0.14,0.61zM9.6129,4.3615c0.498,0 0.918,-0.17 1.26,-0.51c0.343,-0.34 0.514,-0.76 0.514,-1.24c0,-0.48 -0.171,-0.89 -0.514,-1.23c-0.342,-0.35 -0.754,-0.52 -1.236,-0.52c-0.482,0 -0.895,0.17 -1.237,0.52c-0.342,0.34 -0.513,0.75 -0.513,1.23c0,0.48 0.171,0.9 0.513,1.24c0.342,0.34 0.747,0.51 1.213,0.51zM12.2729,2.6415c0,0.71 -0.256,1.33 -0.77,1.84c-0.513,0.51 -1.135,0.77 -1.866,0.77c-0.731,0 -1.354,-0.26 -1.867,-0.77c-0.513,-0.51 -0.77,-1.14 -0.77,-1.87c0,-0.73 0.257,-1.34 0.77,-1.84c0.513,-0.5 1.136,-0.76 1.867,-0.77c0.731,-0.02 1.345,0.23 1.843,0.75c0.498,0.51 0.747,1.14 0.747,1.89zM6.0669,6.3715c-0.342,-0.13 -0.7,-0.2 -1.074,-0.23c-0.217,0 -0.42,0 -0.606,0c-1.058,0 -1.96,0.23 -2.707,0.7c-0.56,0.37 -0.995,0.87 -1.307,1.49c-0.248,0.47 -0.373,0.9 -0.373,1.31c0,0.56 0.296,0.84 0.887,0.84h3.686c-0.124,-0.25 -0.186,-0.53 -0.186,-0.84c0,-0.94 0.311,-1.79 0.933,-2.57c0.218,-0.25 0.467,-0.48 0.747,-0.7zM4.2929,6.9815c-0.528,0.8 -0.793,1.69 -0.793,2.66h-2.613c0,-0.16 0.046,-0.36 0.14,-0.61c0.124,-0.34 0.295,-0.65 0.513,-0.93c0.622,-0.72 1.54,-1.08 2.753,-1.08zM1.3069,3.0615c0,-0.72 0.256,-1.33 0.77,-1.85c0.513,-0.51 1.135,-0.77 1.866,-0.77c0.732,0 1.354,0.26 1.867,0.77c0.513,0.52 0.77,1.13 0.77,1.85c0,0.71 -0.257,1.33 -0.77,1.84c-0.513,0.51 -1.135,0.77 -1.867,0.77c-0.731,0 -1.353,-0.26 -1.866,-0.77c-0.514,-0.51 -0.77,-1.13 -0.77,-1.84zM3.9199,1.3315c-0.467,0 -0.871,0.17 -1.213,0.51c-0.342,0.34 -0.514,0.76 -0.514,1.24c0,0.48 0.172,0.89 0.514,1.24c0.342,0.34 0.754,0.51 1.236,0.51c0.483,0 0.895,-0.17 1.237,-0.51c0.342,-0.35 0.513,-0.76 0.513,-1.24c0,-0.48 -0.171,-0.9 -0.513,-1.24c-0.342,-0.34 -0.762,-0.51 -1.26,-0.51z" fill="currentColor"/></svg>