<svg viewBox="0 0 577.85 497.338" fill="none" xmlns="http://www.w3.org/2000/svg" xmlns:xlink="http://www.w3.org/1999/xlink" id="cc858989" x="0" y="0"><g id="MacBook Pro 16&quot; - 2" data-node-id="13:2"><g id="Frame 15" data-node-id="13:3"><g id="Insurance-rafiki (1) 1" data-node-id="13:4" clip-path="url(#clip0_13_2)"><g id="freepik--background-complete--inject-7" data-node-id="13:5"><path id="Vector_8" data-node-id="13:13" d="M276.42,429.225h-268.008c-2.1,-0.004 -4.112,-0.918 -5.596,-2.541c-1.483,-1.623 -2.316,-3.822 -2.316,-6.115v-411.488c0.018,-2.28 0.859,-4.46 2.341,-6.067c1.481,-1.607 3.483,-2.51 5.571,-2.514h268.008c2.102,0 4.118,0.912 5.605,2.535c1.486,1.624 2.321,3.826 2.321,6.121v411.413c0,2.295 -0.835,4.497 -2.321,6.121c-1.487,1.623 -3.503,2.535 -5.605,2.535zM8.412,0.803c-2.008,0.004 -3.932,0.878 -5.35,2.43c-1.419,1.552 -2.215,3.655 -2.215,5.848v411.488c0,2.192 0.796,4.295 2.215,5.847c1.418,1.552 3.342,2.426 5.35,2.43h268.008c2.009,-0.004 3.935,-0.878 5.355,-2.429c1.421,-1.551 2.22,-3.654 2.224,-5.848v-411.488c-0.004,-2.194 -0.803,-4.297 -2.224,-5.849c-1.42,-1.551 -3.346,-2.425 -5.355,-2.429z" fill="#727272"/><path id="Vector_9" data-node-id="13:14" d="M576.659,429.225h-268.023c-2.101,-0.004 -4.115,-0.917 -5.6,-2.54c-1.486,-1.622 -2.322,-3.822 -2.326,-6.116v-411.488c0.022,-2.282 0.867,-4.462 2.35,-6.068c1.484,-1.606 3.487,-2.509 5.576,-2.513h268.023c2.085,0.008 4.083,0.913 5.562,2.519c1.478,1.606 2.317,3.784 2.335,6.062v411.488c0,2.29 -0.831,4.487 -2.311,6.11c-1.48,1.622 -3.489,2.538 -5.586,2.546zM308.636,0.803c-2.009,0.004 -3.934,0.878 -5.355,2.429c-1.42,1.552 -2.22,3.655 -2.224,5.849v411.488c0.004,2.194 0.804,4.297 2.224,5.848c1.421,1.551 3.346,2.425 5.355,2.429h268.023c2.008,-0.004 3.934,-0.878 5.354,-2.429c1.421,-1.551 2.22,-3.654 2.224,-5.848v-411.488c-0.004,-2.194 -0.803,-4.297 -2.224,-5.849c-1.42,-1.551 -3.346,-2.425 -5.354,-2.429z" fill="#727272"/><path id="Vector_10" data-node-id="13:15" d="M122.713,213.392h363.948v-178.039h-363.948z" fill="#515E6C"/><path id="Vector_11" data-node-id="13:16" d="M115.037,213.392h368.042v-178.039h-368.042z" fill="#6D747B"/><path id="Vector_12" data-node-id="13:17" d="M122.713,219.41h363.948v-6.033h-363.948z" fill="#515E6C"/><path id="Vector_13" data-node-id="13:18" d="M102.268,219.41h368.042v-6.033h-368.042z" fill="#6D747B"/><path id="Vector_14" data-node-id="13:19" d="M472.35,201.673v-154.601h-346.569v154.601z" fill="#FAFAFA"/><path id="Vector_15" data-node-id="13:20" d="M378.73,201.673l-62.974,-154.601h-64.459l62.988,154.601z" fill="white"/><path id="Vector_16" data-node-id="13:21" d="M467.381,175.826c0.203,0 0.397,-0.088 0.54,-0.245c0.143,-0.156 0.224,-0.368 0.224,-0.589v-120.295c0,-0.222 -0.08,-0.436 -0.223,-0.595c-0.143,-0.159 -0.337,-0.25 -0.541,-0.254c-0.101,0 -0.202,0.022 -0.295,0.065c-0.094,0.043 -0.179,0.106 -0.25,0.185c-0.071,0.079 -0.127,0.173 -0.164,0.275c-0.038,0.103 -0.056,0.213 -0.054,0.324v120.295c-0.002,0.11 0.016,0.219 0.054,0.321c0.038,0.102 0.094,0.195 0.165,0.273c0.071,0.078 0.156,0.139 0.25,0.18c0.093,0.041 0.193,0.062 0.294,0.06z" fill="#6D747B"/><path id="Vector_17" data-node-id="13:22" d="M290.051,201.673l-62.988,-154.601h-22.291l62.973,154.601z" fill="white"/><path id="Vector_18" data-node-id="13:23" d="M127.141,201.658v-154.602h-1.36v154.602z" fill="#515E6C"/><g id="Group" data-node-id="13:24" opacity="0.5">
<path id="Vector_19" data-node-id="13:25" d="M112.497,63.156h363.962l0.985,-11.536h-363.961z" fill="#515E6C"/>
<path id="Vector_20" data-node-id="13:26" d="M112.497,82.228h363.962l0.985,-11.552h-363.961z" fill="#515E6C"/>
<path id="Vector_21" data-node-id="13:27" d="M112.497,101.284h363.962l0.985,-11.537h-363.961z" fill="#515E6C"/>
<path id="Vector_22" data-node-id="13:28" d="M112.497,120.355h363.962l0.985,-11.552h-363.961z" fill="#515E6C"/>
<path id="Vector_23" data-node-id="13:29" d="M112.497,139.411h363.962l0.985,-11.552h-363.961z" fill="#515E6C"/>
<path id="Vector_24" data-node-id="13:30" d="M112.497,158.468h363.962l0.985,-11.537h-363.961z" fill="#515E6C"/>
</g><path id="Vector_25" data-node-id="13:31" d="M496.085,489.486h35.95v-155.875h-35.95z" fill="#6D747B"/><path id="Vector_26" data-node-id="13:32" d="M355.495,496.838h169.627v-7.352h-169.627z" fill="#6D747B"/><path id="Vector_27" data-node-id="13:33" d="M496.085,333.611h-147.489v155.875h147.489z" fill="#F5F5F5"/><path id="Vector_28" data-node-id="13:34" d="M481.927,431.211h-119.201c-0.076,0 -0.151,-0.017 -0.221,-0.049c-0.07,-0.032 -0.133,-0.079 -0.186,-0.139c-0.053,-0.059 -0.095,-0.129 -0.123,-0.206c-0.028,-0.077 -0.041,-0.16 -0.039,-0.243v-38.067c-0.002,-0.083 0.011,-0.165 0.039,-0.242c0.028,-0.077 0.07,-0.148 0.123,-0.207c0.053,-0.059 0.116,-0.106 0.186,-0.139c0.07,-0.032 0.145,-0.048 0.221,-0.048h46.193c0.109,0 0.216,0.033 0.309,0.097c0.093,0.063 0.167,0.154 0.215,0.261c0.048,0.108 0.067,0.228 0.055,0.347c-0.011,0.119 -0.054,0.232 -0.121,0.326c-0.241,0.332 -0.373,0.743 -0.375,1.167c0.005,0.266 0.059,0.528 0.157,0.772c0.099,0.243 0.241,0.463 0.418,0.646c0.177,0.183 0.385,0.326 0.612,0.421c0.228,0.095 0.471,0.14 0.714,0.132h22.861c0.243,0.008 0.486,-0.037 0.714,-0.132c0.227,-0.095 0.436,-0.238 0.612,-0.421c0.177,-0.183 0.319,-0.403 0.418,-0.646c0.098,-0.244 0.152,-0.506 0.157,-0.772c-0.002,-0.424 -0.134,-0.835 -0.374,-1.167c-0.068,-0.094 -0.11,-0.207 -0.122,-0.326c-0.012,-0.119 0.007,-0.239 0.055,-0.347c0.048,-0.107 0.122,-0.198 0.215,-0.261c0.093,-0.064 0.2,-0.097 0.31,-0.097h46.178c0.155,0 0.303,0.067 0.413,0.186c0.109,0.12 0.17,0.282 0.17,0.45v38.067c0,0.169 -0.061,0.331 -0.17,0.45c-0.11,0.12 -0.258,0.187 -0.413,0.187zM363.309,429.937h117.98v-36.793h-44.583c0.083,0.3 0.125,0.612 0.125,0.925c-0.014,0.874 -0.345,1.706 -0.92,2.314c-0.575,0.608 -1.347,0.942 -2.147,0.93h-22.861c-0.8,0.012 -1.572,-0.322 -2.147,-0.93c-0.575,-0.608 -0.906,-1.44 -0.92,-2.314c0,-0.313 0.042,-0.625 0.125,-0.925h-44.652z" fill="white"/><path id="Vector_29" data-node-id="13:35" d="M481.927,476.221h-119.201c-0.076,0 -0.151,-0.017 -0.221,-0.049c-0.07,-0.032 -0.133,-0.079 -0.186,-0.139c-0.053,-0.059 -0.095,-0.129 -0.123,-0.206c-0.028,-0.077 -0.041,-0.16 -0.039,-0.243v-38.067c-0.002,-0.082 0.011,-0.165 0.039,-0.242c0.028,-0.077 0.07,-0.148 0.123,-0.207c0.053,-0.059 0.116,-0.106 0.186,-0.139c0.07,-0.032 0.145,-0.048 0.221,-0.048h46.206c0.11,0.003 0.217,0.038 0.31,0.102c0.093,0.065 0.168,0.155 0.218,0.262c0.046,0.11 0.062,0.233 0.047,0.354c-0.014,0.12 -0.06,0.234 -0.13,0.328c-0.247,0.322 -0.38,0.731 -0.375,1.152c0.005,0.267 0.059,0.53 0.157,0.774c0.099,0.244 0.24,0.465 0.417,0.649c0.176,0.185 0.385,0.329 0.612,0.426c0.228,0.096 0.471,0.143 0.715,0.137h22.861c0.244,0.006 0.487,-0.041 0.715,-0.137c0.228,-0.097 0.436,-0.241 0.612,-0.426c0.177,-0.184 0.318,-0.405 0.417,-0.649c0.098,-0.244 0.152,-0.507 0.157,-0.774c-0.001,-0.419 -0.134,-0.826 -0.374,-1.152c-0.074,-0.092 -0.122,-0.206 -0.136,-0.328c-0.015,-0.121 0.003,-0.244 0.052,-0.354c0.05,-0.107 0.125,-0.197 0.218,-0.262c0.093,-0.064 0.2,-0.099 0.31,-0.102h46.192c0.155,0 0.303,0.067 0.413,0.186c0.109,0.12 0.17,0.282 0.17,0.45v38.067c0,0.169 -0.061,0.331 -0.17,0.45c-0.11,0.12 -0.258,0.187 -0.413,0.187zM363.309,475.008h117.98v-36.854h-44.583c0.083,0.3 0.125,0.612 0.125,0.925c-0.005,0.434 -0.089,0.862 -0.246,1.261c-0.157,0.399 -0.385,0.76 -0.669,1.063c-0.285,0.302 -0.622,0.541 -0.991,0.701c-0.369,0.161 -0.764,0.24 -1.161,0.234h-22.861c-0.397,0.006 -0.792,-0.073 -1.161,-0.234c-0.369,-0.16 -0.706,-0.399 -0.99,-0.701c-0.285,-0.303 -0.513,-0.664 -0.67,-1.063c-0.157,-0.399 -0.241,-0.827 -0.246,-1.261c0,-0.313 0.042,-0.625 0.125,-0.925h-44.652z" fill="white"/><path id="Vector_30" data-node-id="13:36" d="M481.927,386.201h-119.201c-0.076,0 -0.151,-0.017 -0.221,-0.049c-0.07,-0.032 -0.133,-0.079 -0.186,-0.139c-0.053,-0.059 -0.095,-0.129 -0.123,-0.206c-0.028,-0.077 -0.041,-0.16 -0.039,-0.243v-38.067c-0.002,-0.082 0.011,-0.165 0.039,-0.242c0.028,-0.077 0.07,-0.148 0.123,-0.207c0.053,-0.059 0.116,-0.106 0.186,-0.139c0.07,-0.032 0.145,-0.048 0.221,-0.048h46.193c0.109,0.003 0.216,0.038 0.309,0.102c0.093,0.065 0.168,0.155 0.218,0.262c0.058,0.102 0.088,0.22 0.088,0.341c0,0.12 -0.03,0.238 -0.088,0.341c-0.247,0.322 -0.38,0.731 -0.375,1.152c0.006,0.266 0.059,0.528 0.158,0.772c0.099,0.243 0.24,0.463 0.417,0.646c0.177,0.183 0.385,0.326 0.613,0.421c0.228,0.095 0.47,0.14 0.714,0.132h22.86c0.244,0.008 0.486,-0.037 0.714,-0.132c0.228,-0.095 0.436,-0.238 0.613,-0.421c0.177,-0.183 0.318,-0.403 0.417,-0.646c0.099,-0.244 0.152,-0.506 0.158,-0.772c0.005,-0.421 -0.128,-0.83 -0.375,-1.152c-0.058,-0.103 -0.088,-0.221 -0.088,-0.341c0,-0.121 0.03,-0.239 0.088,-0.341c0.05,-0.107 0.125,-0.197 0.218,-0.262c0.093,-0.064 0.2,-0.099 0.309,-0.102h46.179c0.077,0 0.153,0.016 0.223,0.048c0.071,0.032 0.135,0.079 0.189,0.138c0.054,0.059 0.097,0.129 0.127,0.207c0.029,0.077 0.044,0.16 0.044,0.243v38.067c0.006,0.099 -0.01,0.198 -0.047,0.289c-0.037,0.091 -0.093,0.171 -0.163,0.233c-0.071,0.062 -0.154,0.105 -0.243,0.125c-0.089,0.02 -0.181,0.017 -0.269,-0.01zM363.309,384.927h117.98v-36.793h-44.583c0.083,0.3 0.125,0.612 0.125,0.925c-0.014,0.874 -0.345,1.706 -0.92,2.314c-0.575,0.608 -1.347,0.942 -2.147,0.93h-22.861c-0.8,0.012 -1.572,-0.322 -2.147,-0.93c-0.575,-0.608 -0.906,-1.44 -0.92,-2.314c0,-0.313 0.042,-0.625 0.125,-0.925h-44.652z" fill="white"/><path id="Vector_31" data-node-id="13:37" d="M343.808,333.611h152.277v-12.795h-152.277z" fill="#6D747B"/><path id="Vector_32" data-node-id="13:38" d="M537.045,320.816h-40.974v12.795h40.974z" fill="#515E6C"/><path id="Vector_33" data-node-id="13:39" d="M15.185,496.823h57.644v-211.451h-57.644z" fill="#F5F5F5"/><path id="Vector_34" data-node-id="13:40" d="M15.199,496.823h9.507v-211.451h-9.507z" fill="#6D747B"/><path id="Vector_35" data-node-id="13:41" d="M282.791,292.36h-218.846v52.909h218.846z" fill="#515E6C"/><path id="Vector_36" data-node-id="13:42" d="M282.791,361.111h-218.846v12.219h218.846z" fill="#515E6C"/><path id="Vector_37" data-node-id="13:43" d="M270.008,285.387h-254.809v18.374h254.809z" fill="#6D747B"/><path id="Vector_38" data-node-id="13:44" d="M270.008,496.823h57.63v-211.451h-57.63z" fill="#F5F5F5"/><path id="Vector_39" data-node-id="13:45" d="M269.994,496.823h9.507v-211.451h-9.507z" fill="#6D747B"/></g></g></g></g><defs><clipPath id="clip0_13_2">
<rect width="694" height="861" fill="white" transform="translate(-116.15, -162.80900000000003)"/>
</clipPath></defs></svg>