<svg viewBox="0 0 467.9499 578.7478" fill="none" xmlns="http://www.w3.org/2000/svg" xmlns:xlink="http://www.w3.org/1999/xlink" id="e92cb243" x="0" y="0"><g id="MacBook Pro 16&quot; - 2" data-node-id="13:2"><g id="Frame 15" data-node-id="13:3"><g id="Insurance-rafiki (1) 1" data-node-id="13:4" clip-path="url(#clip0_13_2)"><g id="freepik--character-1--inject-7" data-node-id="13:46">
<path id="Vector_40" data-node-id="13:47" d="M140.3173,176.1438c-2.484,2.579 -5.434,4.561 -8.661,5.821c-0.175,-3.862 -0.786,-7.686 -1.819,-11.385c0,0 0.278,8.262 -1.873,12.81c-3.058,1.059 -6.173,1.91 -9.328,2.547c-0.194,-1.029 -0.454,-2.042 -0.777,-3.032c-0.098,1.123 -0.308,2.231 -0.625,3.305c-10.507,2.092 -24.984,5.503 -38.073,3.032c-7.981,-11.218 0.375,-19.511 1.194,-26.136c1.069,-8.671 -6.371,-10.703 -5.469,-17.737c0.903,-7.034 8.106,-2.759 11.729,-10.718c4.802,-10.612 15.351,-16.903 24.568,-14.917c12.2,2.653 7.994,22.618 17.419,29.031c9.425,6.413 14.102,17.479 11.715,27.379z" fill="#263238"/>
<path id="Vector_41" data-node-id="13:48" d="M140.1093,178.7658h-0.111c-0.043,-0.015 -0.082,-0.039 -0.115,-0.071c-0.034,-0.032 -0.061,-0.072 -0.08,-0.115c-0.02,-0.044 -0.031,-0.092 -0.033,-0.14c-0.002,-0.049 0.004,-0.098 0.019,-0.143c2.568,-8.157 3.776,-18.647 -9.868,-27.486c-5.039,-3.274 -6.441,-9.171 -7.815,-14.871c-1.846,-7.717 -3.567,-14.994 -14.213,-14.827c-0.086,-0.007 -0.167,-0.048 -0.228,-0.114c-0.061,-0.067 -0.098,-0.156 -0.105,-0.25c-0.004,-0.049 0.002,-0.099 0.017,-0.146c0.015,-0.047 0.039,-0.09 0.071,-0.126c0.031,-0.036 0.07,-0.064 0.112,-0.082c0.042,-0.019 0.088,-0.027 0.133,-0.025c11.104,-0.167 13.047,7.732 14.88,15.372c1.318,5.564 2.706,11.31 7.495,14.433c14.227,9.217 12.603,20.602 10.16,28.364c-0.027,0.068 -0.072,0.126 -0.129,0.166c-0.056,0.04 -0.123,0.062 -0.19,0.061z" fill="#263238"/>
<path id="Vector_42" data-node-id="13:49" d="M125.0493,276.6848c0,0 -0.555,74.132 -4.803,135.03c-9.202,60.276 -17.266,143.02 -17.266,143.02h-8.8c0,0 -8.87,-109.804 0.916,-145.127c-5.802,-45.298 -3.998,-131.695 -3.998,-131.695z" fill="#B55B52"/>
<path id="Vector_43" data-node-id="13:50" d="M136.6663,211.3298c0,0.698 0,1.728 0,2.608l0.111,2.774c0.097,1.865 0.25,3.729 0.444,5.564c0.36,3.662 0.944,7.293 1.749,10.869c0.773,3.413 1.852,6.734 3.221,9.915c1.259,2.937 2.968,5.618 5.052,7.929l0.513,0.561c-0.236,-0.263 -0.542,-0.438 -0.874,-0.501c-0.167,0 0,0.091 0.43,0.076c1.147,-0.133 2.269,-0.449 3.331,-0.94c2.836,-1.256 5.566,-2.778 8.162,-4.548c2.776,-1.804 5.469,-3.805 8.175,-5.867c2.707,-2.061 5.427,-4.214 8.051,-6.337c0.633,-0.514 1.418,-0.756 2.204,-0.678c0.786,0.078 1.518,0.47 2.056,1.101c0.538,0.631 0.844,1.456 0.86,2.318c0.015,0.862 -0.261,1.7 -0.776,2.353c-2.304,2.941 -4.705,5.594 -7.19,8.262c-2.484,2.669 -5.108,5.17 -7.898,7.58c-2.885,2.543 -5.99,4.772 -9.271,6.656c-1.981,1.112 -4.099,1.903 -6.288,2.35c-1.527,0.3 -3.093,0.269 -4.608,-0.091c-1.997,-0.484 -3.806,-1.633 -5.177,-3.29l0.527,0.576c-3.341,-3.145 -6.126,-6.932 -8.217,-11.173c-1.98,-3.975 -3.531,-8.187 -4.622,-12.553c-1.077,-4.199 -1.861,-8.481 -2.346,-12.81c-0.236,-2.137 -0.402,-4.29 -0.513,-6.443c0,-1.076 -0.097,-2.152 -0.111,-3.244c-0.014,-1.091 0,-2.107 0,-3.411c0.103,-1.811 0.843,-3.509 2.066,-4.738c1.222,-1.229 2.832,-1.895 4.494,-1.858c1.661,0.037 3.245,0.774 4.42,2.057c1.175,1.283 1.851,3.013 1.886,4.827z" fill="#B55B52"/>
<path id="Vector_44" data-node-id="13:51" d="M188.5363,233.3428l-0.347,-5.837c-0.029,-0.461 -0.146,-0.91 -0.343,-1.318c-0.198,-0.408 -0.472,-0.767 -0.804,-1.052c-0.332,-0.286 -0.715,-0.492 -1.125,-0.606c-0.41,-0.114 -0.837,-0.133 -1.253,-0.056c-2.664,0.491 -5.104,1.93 -6.94,4.093l-5.83,6.822l-1.055,6.367c4.692,2.517 11.257,-2.637 11.257,-2.637l4.788,-2.578c0.534,-0.295 0.976,-0.756 1.27,-1.325c0.295,-0.57 0.427,-1.222 0.382,-1.873z" fill="#B55B52"/>
<path id="Vector_45" data-node-id="13:52" d="M132.4473,200.6118c9.203,8.08 7.801,16.994 9.841,23.574c-4.261,7.883 -21.111,11.597 -21.111,11.597c0,0 1.346,-43.888 11.27,-35.171z" fill="#040F26"/>
<path id="Vector_46" data-node-id="13:53" d="M136.5283,209.4958c1.388,20.693 -10.119,36.384 -11.104,58.199l-47.831,-1.273c1.388,-21.224 0.805,-19.132 -6.024,-60.231c-0.189,-1.134 -0.163,-2.299 0.076,-3.422c0.239,-1.123 0.687,-2.18 1.315,-3.107c0.629,-0.926 1.424,-1.702 2.338,-2.279c0.914,-0.577 1.927,-0.944 2.975,-1.076c3.554,-0.44 7.953,-0.864 12.575,-0.955c7.747,-0.371 15.507,-0.133 23.222,0.712c4.983,0.652 10.299,1.698 14.352,2.577c4.76,0.986 7.731,5.549 8.106,10.855z" fill="#040F26"/>
<path id="Vector_47" data-node-id="13:54" d="M115.4303,216.8178c0.194,2.138 -0.791,3.866 -2.207,3.866c-1.416,0 -2.776,-1.713 -2.915,-3.851c-0.138,-2.137 0.792,-3.881 2.207,-3.881c1.416,0 2.721,1.729 2.915,3.866z" fill="white"/>
<path id="Vector_48" data-node-id="13:55" d="M112.8623,207.1608c3.22,0.895 6.662,3.305 8.037,9.46c9.605,-15.706 -6.802,-20.602 -6.802,-20.602z" fill="white"/>
<path id="Vector_49" data-node-id="13:56" d="M107.2133,207.9798c-1.183,-0.168 -2.384,-0.079 -3.535,0.262c-1.151,0.341 -2.229,0.927 -3.171,1.724c-0.943,0.798 -1.733,1.791 -2.323,2.922c-0.59,1.132 -0.97,2.38 -1.117,3.672c-10.535,-14.978 -6.191,-21.314 -6.191,-21.314z" fill="white"/>
<path id="Vector_50" data-node-id="13:57" d="M93.9163,166.8198c1.249,8.202 2.332,23.195 -3.04,28.486c0,0 9.466,11.203 20.251,14.16c1.576,-1.729 2.686,-3.898 3.21,-6.269c0.524,-2.372 0.441,-4.855 -0.24,-7.178c-8.328,-2.426 -7.883,-9.172 -6.273,-15.464z" fill="#B55B52"/>
<path id="Vector_51" data-node-id="13:58" opacity="0.2" d="M99.5793,172.4298l8.245,8.11c-0.407,1.485 -0.686,3.007 -0.833,4.548c-3.178,-0.606 -7.453,-4.548 -7.689,-8.201c-0.161,-1.492 -0.067,-3.003 0.277,-4.457z" fill="black"/>
<path id="Vector_52" data-node-id="13:59" d="M85.1023,157.6938c4.886,12.568 6.718,17.995 14.796,22.286c12.145,6.458 25.206,-2.851 23.86,-16.752c-1.222,-12.522 -9.008,-30.957 -22.208,-31.624c-2.901,-0.153 -5.79,0.505 -8.394,1.913c-2.603,1.407 -4.833,3.517 -6.481,6.13c-1.647,2.613 -2.656,5.643 -2.931,8.801c-0.276,3.158 0.192,6.341 1.358,9.246z" fill="#B55B52"/>
<path id="Vector_53" data-node-id="13:60" d="M83.6173,147.6728c15.629,-0.136 37.476,-8.671 31.05,-17.6c-3.29,-17.768 -30.828,0.727 -31.05,17.6z" fill="#263238"/>
<path id="Vector_54" data-node-id="13:61" d="M85.9773,144.7318c10.465,6.398 7.689,18.784 1.055,21.224c-7.01,-9.186 -8.759,-22.83 -1.055,-21.224z" fill="#263238"/>
<path id="Vector_55" data-node-id="13:62" d="M105.1453,162.7878c0,0 3.553,-0.712 13.394,-0.106c-1.388,3.29 -3.622,5.912 -8.661,5.548c-0.645,0.008 -1.284,-0.13 -1.878,-0.404c-0.594,-0.274 -1.13,-0.68 -1.574,-1.19c-0.444,-0.511 -0.787,-1.116 -1.008,-1.778c-0.22,-0.662 -0.313,-1.367 -0.273,-2.07z" fill="#263238"/>
<path id="Vector_56" data-node-id="13:63" d="M111.8913,164.7128c-1.93,-0.238 -3.878,0.214 -5.552,1.289c0.883,0.762 1.97,1.188 3.095,1.213c1.931,0.237 3.881,-0.221 5.552,-1.304c-0.883,-0.76 -1.971,-1.181 -3.095,-1.198z" fill="#A02724"/>
<path id="Vector_57" data-node-id="13:64" d="M105.6173,162.7118c0,0.637 0.278,1.016 1.18,1.425c2.634,0.344 5.292,0.415 7.939,0.212c1.286,-0.055 2.499,-0.666 3.373,-1.697c-4.159,-0.343 -8.336,-0.322 -12.492,0.06z" fill="white"/>
<path id="Vector_58" data-node-id="13:65" d="M103.9513,153.8428c0.333,1.046 1.111,1.698 1.749,1.516c0.639,-0.182 0.847,-1.288 0.514,-2.334c-0.333,-1.046 -1.125,-1.698 -1.749,-1.516c-0.625,0.182 -0.861,1.288 -0.514,2.334z" fill="#263238"/>
<path id="Vector_59" data-node-id="13:66" d="M116.2213,149.1438c0.333,1.046 1.124,1.698 1.749,1.516c0.624,-0.182 0.86,-1.289 0.513,-2.335c-0.347,-1.046 -1.124,-1.698 -1.748,-1.516c-0.625,0.182 -0.847,1.289 -0.514,2.335z" fill="#263238"/>
<path id="Vector_60" data-node-id="13:67" d="M116.4853,146.9758l2.068,-1.622c0,0 -0.555,2.425 -2.068,1.622z" fill="#263238"/>
<path id="Vector_61" data-node-id="13:68" d="M112.7233,151.7358c1.615,2.057 3.484,3.858 5.552,5.352c-0.364,0.572 -0.838,1.051 -1.39,1.402c-0.551,0.351 -1.166,0.566 -1.802,0.629z" fill="#A02724"/>
<path id="Vector_62" data-node-id="13:69" d="M84.7973,169.8518c0.814,0.978 1.797,1.769 2.893,2.329c1.096,0.559 2.283,0.876 3.492,0.931c3.206,0.121 4.052,-3.199 2.526,-6.064c-1.388,-2.577 -4.678,-5.746 -7.593,-4.548c-0.619,0.293 -1.163,0.747 -1.587,1.321c-0.423,0.575 -0.711,1.253 -0.841,1.977c-0.13,0.723 -0.097,1.47 0.097,2.177c0.193,0.706 0.541,1.35 1.013,1.877z" fill="#B55B52"/>
<path id="Vector_63" data-node-id="13:70" d="M98.2883,151.9788c0.077,-0.02 0.148,-0.057 0.211,-0.109c0.062,-0.053 0.113,-0.119 0.15,-0.194c0.344,-0.729 0.842,-1.358 1.453,-1.835c0.611,-0.477 1.316,-0.789 2.059,-0.909c0.156,-0.019 0.299,-0.101 0.402,-0.231c0.103,-0.129 0.158,-0.295 0.153,-0.467c-0.005,-0.085 -0.026,-0.169 -0.061,-0.246c-0.035,-0.077 -0.083,-0.145 -0.143,-0.202c-0.059,-0.056 -0.128,-0.099 -0.203,-0.126c-0.074,-0.027 -0.153,-0.038 -0.231,-0.032c-0.942,0.134 -1.839,0.514 -2.617,1.108c-0.779,0.594 -1.414,1.384 -1.853,2.303c-0.074,0.151 -0.091,0.328 -0.047,0.493c0.044,0.164 0.146,0.303 0.283,0.386c0.066,0.044 0.14,0.071 0.216,0.082c0.077,0.01 0.155,0.003 0.228,-0.021z" fill="#263238"/>
<path id="Vector_64" data-node-id="13:71" d="M117.2763,144.1868c0.131,-0.086 0.23,-0.221 0.278,-0.379c0.023,-0.082 0.031,-0.168 0.023,-0.253c-0.007,-0.085 -0.031,-0.167 -0.068,-0.242c-0.038,-0.075 -0.089,-0.141 -0.15,-0.194c-0.062,-0.053 -0.132,-0.092 -0.208,-0.115c-0.899,-0.327 -1.858,-0.411 -2.793,-0.245c-0.936,0.166 -1.821,0.578 -2.578,1.2c-0.114,0.113 -0.183,0.27 -0.193,0.437c-0.011,0.168 0.038,0.333 0.137,0.462c0.098,0.129 0.238,0.212 0.391,0.231c0.152,0.018 0.306,-0.028 0.428,-0.129c0.607,-0.482 1.31,-0.799 2.051,-0.923c0.742,-0.124 1.5,-0.052 2.21,0.21c0.079,0.025 0.161,0.033 0.242,0.022c0.081,-0.01 0.159,-0.038 0.23,-0.082z" fill="#263238"/>
<path id="Vector_65" data-node-id="13:72" d="M104.2293,151.6758l2.054,-1.622c0,0 -0.555,2.425 -2.054,1.622z" fill="#263238"/>
<path id="Vector_66" data-node-id="13:73" d="M112.2523,278.4738c0,0 -8.911,75.8 -23.291,135.682c-19.626,45.616 -42.736,80.848 -66.43,118.248l-8.328,-4.851c16.254,-40.295 33.646,-88.019 50.107,-119.431c11.909,-114.336 10.591,-129.602 10.591,-129.602z" fill="#B55B52"/>
<path id="Vector_67" data-node-id="13:74" d="M28.3053,562.7238c-0.527,-2.441 -5.024,-8.869 -5.024,-8.869c0,0 -1.388,-8.717 2.692,-24.786c0.049,-0.188 0.049,-0.387 0,-0.574c-0.049,-0.188 -0.145,-0.356 -0.277,-0.487l-8.162,-8.066c-0.233,-0.214 -0.533,-0.322 -0.838,-0.303c-0.304,0.02 -0.591,0.167 -0.799,0.41c-0.694,0.788 -2.943,5.154 -3.748,6.488c-0.805,1.334 -1.999,3.275 -2.776,4.548c-2.776,4.791 -8.703,15.751 -8.703,15.751l1.069,0.622c1.963,-3.248 4.099,-6.366 6.399,-9.339c2.415,-2.804 2.304,2.138 1.388,6.367c-0.916,4.23 1.554,10.825 8.328,15.16c8.05,4.897 11.006,5.579 10.451,3.078z" fill="#263238"/>
<path id="Vector_68" data-node-id="13:75" d="M125.4513,267.6498c10.133,34.989 2.429,70.509 -2.387,137.577c-22.208,3.653 -42.098,0 -64.958,-7.58c14.685,-76.983 -3.429,-96.175 19.515,-131.271z" fill="#040F26"/>
<path id="Vector_69" data-node-id="13:76" d="M76.8023,262.5558c-0.274,1.358 -0.46,2.736 -0.555,4.123c-0.047,0.267 -0.004,0.542 0.121,0.776c0.125,0.234 0.324,0.411 0.559,0.498c5.149,0.864 35.297,5.655 48.76,2.016c0.192,-0.085 0.353,-0.236 0.458,-0.43c0.105,-0.195 0.149,-0.422 0.125,-0.646c0,-1.259 0,-3.229 0,-4.457c0,-0.637 -0.347,-1.168 -0.777,-1.168c-4.706,0 -29.537,0.122 -47.997,-1.394c-0.172,0.002 -0.337,0.073 -0.465,0.198c-0.128,0.126 -0.209,0.298 -0.229,0.484z" fill="#263238"/>
<path id="Vector_70" data-node-id="13:77" d="M101.2453,262.0248c2.318,-0.667 15.92,-0.227 17.155,0.395c1.236,0.621 0.639,8.823 -0.458,9.338c-2.179,1.061 -14.574,0.788 -16.808,0.243c-2.235,-0.546 -1.472,-9.445 0.111,-9.976z" fill="white"/>
<path id="Vector_71" data-node-id="13:78" opacity="0.2" d="M101.3843,352.3938l1.873,-33.807l10.688,-16.054z" fill="black"/>
<path id="Vector_72" data-node-id="13:79" d="M80.4943,215.5598c-1.846,2.486 -3.873,5.23 -5.691,7.944c-1.818,2.713 -3.692,5.472 -5.358,8.292c-3.345,5.265 -6.038,10.989 -8.008,17.025c-0.167,0.697 -0.361,1.379 -0.472,2.031l-0.097,0.425c0,0 0,0.076 0,0.182c0.135,0.996 0.436,1.957 0.888,2.835c1.398,2.713 3.06,5.254 4.955,7.58c4.148,5.14 8.555,10.024 13.2,14.629l0.083,0.091c0.572,0.585 0.927,1.379 1,2.231c0.073,0.852 -0.143,1.703 -0.606,2.393c-0.463,0.691 -1.141,1.172 -1.907,1.353c-0.765,0.182 -1.565,0.051 -2.248,-0.368c-5.924,-3.593 -11.48,-7.867 -16.573,-12.749c-2.774,-2.631 -5.236,-5.631 -7.329,-8.93c-1.336,-2.102 -2.279,-4.472 -2.776,-6.973c-0.142,-0.815 -0.216,-1.642 -0.222,-2.471c0,-0.425 0,-0.895 0,-1.365c0,-0.47 0.07,-0.576 0.111,-0.879c0.125,-1.107 0.333,-2.138 0.528,-3.184c0.87,-3.888 2.108,-7.668 3.692,-11.279c1.485,-3.429 3.154,-6.76 4.997,-9.975c1.804,-3.184 3.664,-6.291 5.69,-9.248c2.027,-2.956 4.04,-5.821 6.413,-8.747c1.126,-1.338 2.683,-2.149 4.344,-2.261c1.66,-0.113 3.297,0.481 4.566,1.657c1.269,1.176 2.071,2.843 2.24,4.651c0.168,1.809 -0.311,3.618 -1.337,5.049z" fill="#B55B52"/>
<path id="Vector_73" data-node-id="13:80" d="M78.8703,196.1848c-9.064,0.592 -12.034,6.216 -15.157,12.265c2.776,8.626 14.297,22.482 14.297,22.482c0,0 17.322,-35.808 0.86,-34.747z" fill="#040F26"/>
<path id="Vector_74" data-node-id="13:81" d="M178.0843,225.3528c-15.421,-11.112 -35.921,-4.836 -45.804,13.993c-15.434,-11.112 -35.935,-4.836 -45.804,13.993c-9.869,18.828 -5.358,43.115 10.063,54.227l55.867,40.219l35.727,-68.22c9.897,-18.828 5.386,-43.1 -10.049,-54.212z" fill="#040F26"/>
<path id="Vector_75" data-node-id="13:82" opacity="0.9" d="M178.0843,225.3528c-15.421,-11.112 -35.921,-4.836 -45.804,13.993c-15.434,-11.112 -35.935,-4.836 -45.804,13.993c-9.869,18.828 -5.358,43.115 10.063,54.227l55.867,40.219l35.727,-68.22c9.897,-18.828 5.386,-43.1 -10.049,-54.212z" fill="white"/>
<path id="Vector_76" data-node-id="13:83" opacity="0.2" d="M99.9683,301.0928c-3.054,-2.256 -5.667,-5.151 -7.688,-8.519c-2.02,-3.367 -3.408,-7.14 -4.083,-11.098c-1.532,-8.296 -0.249,-16.917 3.609,-24.256c3.606,-7.164 9.666,-12.474 16.851,-14.766c3.401,-1.068 6.974,-1.315 10.471,-0.723c3.496,0.592 6.834,2.007 9.779,4.149l5.303,3.82l3.386,-6.473c3.612,-7.165 9.676,-12.475 16.865,-14.766c3.398,-1.067 6.969,-1.314 10.464,-0.722c3.494,0.591 6.829,2.007 9.773,4.148c12.492,8.99 16.142,28.698 8.161,43.964l-32.326,61.732z" fill="#040F26"/>
<path id="Vector_77" data-node-id="13:84" d="M153.4343,308.3538l-15.754,4.806l-10.147,-54.621l15.754,-4.806z" fill="#040F26"/>
<path id="Vector_78" data-node-id="13:85" d="M119.1503,299.8188l-3.47,-18.647l46.137,-14.098l3.456,18.646z" fill="#040F26"/>
<path id="Vector_79" data-node-id="13:86" d="M75.9553,274.0778l11.965,0.318l-6.288,10.506c0,0 -7.134,-1.926 -8.966,-7.429z" fill="#B55B52"/>
<path id="Vector_80" data-node-id="13:87" d="M92.8753,281.9758l-2.263,5.533c-0.125,0.327 -0.315,0.619 -0.556,0.856c-0.241,0.237 -0.527,0.412 -0.838,0.514c-0.31,0.101 -0.638,0.126 -0.958,0.073c-0.321,-0.053 -0.627,-0.184 -0.895,-0.381l-5.733,-3.669l6.288,-10.506l4.247,4.275c0.406,0.411 0.691,0.945 0.817,1.534c0.126,0.589 0.088,1.206 -0.109,1.771z" fill="#B55B52"/>
<path id="Vector_81" data-node-id="13:88" d="M123.3423,575.5638c-1.68,-1.879 -8.078,-4.35 -8.078,-4.35c0,0 -5.983,-8.778 -10.73,-25.03c-0.056,-0.193 -0.158,-0.367 -0.294,-0.505c-0.136,-0.138 -0.302,-0.235 -0.483,-0.283l-10.91,-2.85c-0.148,-0.05 -0.303,-0.065 -0.457,-0.043c-0.153,0.021 -0.301,0.079 -0.433,0.168c-0.131,0.089 -0.244,0.208 -0.33,0.348c-0.085,0.141 -0.143,0.3 -0.168,0.467c-0.18,1.046 0,7.019 0,8.626c0,1.607 0,3.911 0,5.442c0.098,5.655 0.667,18.374 0.667,18.374h1.207c0.005,-3.856 0.223,-7.709 0.653,-11.536c0.596,-3.73 3.011,0.682 4.358,4.896c1.346,4.215 6.773,8.702 14.657,8.914c9.272,0.243 12.048,-0.682 10.341,-2.638z" fill="#263238"/>
</g><g id="freepik--character-2--inject-7" data-node-id="13:89">
<path id="Vector_82" data-node-id="13:90" d="M340.7023,542.1668l21.237,0.212l-0.805,27.379l-17.739,-0.166z" fill="#FFC3BD"/>
<path id="Vector_83" data-node-id="13:91" opacity="0.2" d="M340.7163,542.1668l21.236,0.228l-0.458,15.326l-19.279,-0.182z" fill="black"/>
<path id="Vector_84" data-node-id="13:92" d="M363.2433,433.1668c7.412,-36.005 19.682,-74.027 6.76,-106.333l-58.962,5.625c0,0 5.843,76.634 7.412,109.015c1.638,33.671 21.653,111.351 21.653,111.351h24.29c0,0 3.747,-82.38 -1.153,-119.658z" fill="#263238"/>
<path id="Vector_85" data-node-id="13:93" d="M364.5343,578.2178h-5.552l-1.388,-2.047l-2.318,2.077h-31.313c-0.308,-2.364 -0.02,-4.775 0.833,-6.974c0,0 10.868,-1.925 15.074,-5.078c0.356,-0.269 0.759,-0.456 1.184,-0.549c0.424,-0.094 0.862,-0.093 1.286,0.003c3.789,0.788 13.811,2.562 19.238,0.258c0.134,-0.044 0.275,-0.054 0.412,-0.03c0.138,0.023 0.27,0.08 0.385,0.165c0.116,0.086 0.212,0.198 0.283,0.329c0.071,0.132 0.115,0.278 0.127,0.43c0.312,3.849 0.897,7.666 1.749,11.416z" fill="#263238"/>
<path id="Vector_86" data-node-id="13:94" d="M432.2693,526.2788l20.459,-6.261l7.884,26l-17.086,5.26z" fill="#FFC3BD"/>
<path id="Vector_87" data-node-id="13:95" opacity="0.2" d="M432.2823,526.2938l20.46,-6.276l4.413,14.569l-18.571,5.7z" fill="black"/>
<path id="Vector_88" data-node-id="13:96" d="M429.6183,426.6018c-1.194,-35.14 -3.207,-87.7 -15.268,-102.724l-66.027,4.897c0,0 24.664,74.769 34.172,106.363c9.897,32.851 52.619,101.344 52.619,101.344l22.069,-6.928c0,0 -15.67,-63.854 -27.565,-102.952z" fill="#263238"/>
<path id="Vector_89" data-node-id="13:97" d="M250.6213,278.6558l1.818,9.566c-1.388,10.142 -13.075,5.821 -13.075,5.821l-6.343,0.394c-1.125,-0.007 -2.211,-0.452 -3.063,-1.255c-0.853,-0.803 -1.415,-1.911 -1.586,-3.126l-1.319,-6.67c-0.351,-1.355 -0.204,-2.806 0.411,-4.044c0.614,-1.237 1.647,-2.164 2.879,-2.581l5.413,-1.319c1.573,-0.38 3.208,-0.333 4.761,0.136z" fill="#FFC3BD"/>
<path id="Vector_90" data-node-id="13:98" d="M217.3373,297.9238c-4.884,-0.01 -9.625,-1.807 -13.464,-5.104c-3.84,-3.298 -6.557,-7.906 -7.717,-13.088c-0.131,-0.587 -0.043,-1.206 0.245,-1.722c0.288,-0.516 0.751,-0.887 1.289,-1.029c0.537,-0.143 1.104,-0.047 1.577,0.267c0.472,0.315 0.811,0.821 0.942,1.408c1.104,4.976 3.973,9.268 7.975,11.934c4.002,2.665 8.81,3.485 13.365,2.278c4.556,-1.206 8.486,-4.339 10.926,-8.71c2.441,-4.372 3.191,-9.622 2.087,-14.598l-57.56,-260.04c-0.129,-0.587 -0.039,-1.205 0.25,-1.72c0.289,-0.515 0.753,-0.883 1.29,-1.024c0.538,-0.14 1.104,-0.042 1.575,0.274c0.472,0.315 0.809,0.822 0.938,1.409l57.546,259.994c0.679,3.045 0.801,6.207 0.359,9.303c-0.441,3.097 -1.438,6.068 -2.932,8.744c-1.494,2.675 -3.457,5.003 -5.776,6.849c-2.319,1.846 -4.948,3.174 -7.738,3.908c-1.695,0.446 -3.433,0.67 -5.177,0.667z" fill="#263238"/>
<path id="Vector_91" data-node-id="13:99" d="M30.1373,125.9338c-0.638,-6.261 9.48,-14.038 23.194,-17.661c14.199,-3.745 26.802,-1.638 28.218,4.714c-1.388,-6.352 12.797,-15.539 31.73,-20.541c18.932,-5.003 35.366,-3.912 36.754,2.44c-1.388,-6.352 17.752,-16.842 42.778,-23.452c25.026,-6.61 46.498,-6.837 47.9,-0.485c-1.388,-6.352 12.783,-15.539 31.716,-20.542c18.932,-5.003 35.38,-3.911 36.782,2.441c-1.388,-6.352 8.966,-14.524 23.124,-18.192c13.713,-3.623 26.011,-1.774 28.051,4.138c-9.23,-38.218 -89.748,-49.785 -180.523,-25.772c-90.775,24.014 -157.524,74.315 -149.724,112.912z" fill="#040F26"/>
<path id="Vector_92" data-node-id="13:100" opacity="0.2" d="M81.5493,112.9878c-1.388,-6.352 12.797,-15.539 31.73,-20.542c18.932,-5.003 35.366,-3.911 36.754,2.441c-1.388,-6.352 17.752,-16.843 42.778,-23.453c25.026,-6.61 46.498,-6.837 47.9,-0.485c-1.388,-6.352 12.783,-15.539 31.716,-20.542c18.932,-5.003 35.38,-3.911 36.782,2.441c-8.55,-38.658 -66.458,-56.547 -129.348,-39.932c-62.89,16.616 -106.876,61.398 -98.312,100.072z" fill="black"/>
<path id="Vector_93" data-node-id="13:101" d="M150.0333,94.8868c-1.388,-6.353 17.752,-16.843 42.778,-23.453c25.026,-6.61 46.498,-6.837 47.9,-0.485c-8.522,-38.673 -35.783,-64.597 -60.808,-58.033c-25.026,6.565 -38.392,43.297 -29.87,81.971z" fill="#040F26"/>
<path id="Vector_94" data-node-id="13:102" d="M252.7453,279.7628c-3.789,-7.307 -10.674,-6.883 -16.101,-8.384c-0.916,-0.258 -2.373,2.016 -1.249,3.441c0.621,0.935 1.408,1.725 2.315,2.321c0.906,0.596 1.912,0.988 2.959,1.151c0.264,2.608 3.318,9.43 10.063,8.687c1.458,-2.055 2.174,-4.623 2.013,-7.216z" fill="#FFC3BD"/>
<path id="Vector_95" data-node-id="13:103" d="M349.2803,219.7138c-2.887,4.73 -5.857,9.308 -8.813,13.932c-2.957,4.624 -5.983,9.187 -9.05,13.735c-6.121,9.096 -12.381,18.116 -18.974,27.106l-2.776,3.835l-2.596,1.228c-1.388,0.652 -2.776,1.335 -4.067,1.895l-3.803,1.516c-2.443,0.88 -4.872,1.744 -7.245,2.487c-4.747,1.516 -9.452,2.819 -14.116,4.032c-4.664,1.213 -9.355,2.274 -14.019,3.244c-4.663,0.971 -9.327,1.88 -14.13,2.623l-5.677,-23.801l25.595,-10.946c4.234,-1.788 8.328,-3.699 12.423,-5.563c2.026,-0.94 3.942,-1.91 5.843,-2.866l2.637,-1.516l2.249,-1.364l-5.413,5.064c5.482,-9.096 10.951,-18.481 16.448,-27.804l8.328,-14.008c2.776,-4.639 5.552,-9.353 8.328,-13.917z" fill="#040F26"/>
<g id="Group_2" data-node-id="13:104" opacity="0.6">
<path id="Vector_96" data-node-id="13:105" d="M349.2803,219.7138c-2.887,4.73 -5.857,9.308 -8.813,13.932c-2.957,4.624 -5.983,9.187 -9.05,13.735c-6.121,9.096 -12.381,18.116 -18.974,27.106l-2.776,3.835l-2.596,1.228c-1.388,0.652 -2.776,1.335 -4.067,1.895l-3.803,1.516c-2.443,0.88 -4.872,1.744 -7.245,2.487c-4.747,1.516 -9.452,2.819 -14.116,4.032c-4.664,1.213 -9.355,2.274 -14.019,3.244c-4.663,0.971 -9.327,1.88 -14.13,2.623l-5.677,-23.801l25.595,-10.946c4.234,-1.788 8.328,-3.699 12.423,-5.563c2.026,-0.94 3.942,-1.91 5.843,-2.866l2.637,-1.516l2.249,-1.364l-5.413,5.064c5.482,-9.096 10.951,-18.481 16.448,-27.804l8.328,-14.008c2.776,-4.639 5.552,-9.353 8.328,-13.917z" fill="white"/>
</g>
<path id="Vector_97" data-node-id="13:106" d="M335.3033,186.0438c19.404,-3.971 39.151,-5.578 58.879,-4.791c2.704,0.169 5.348,0.938 7.77,2.262c2.422,1.323 4.571,3.173 6.316,5.435c1.745,2.262 3.049,4.889 3.833,7.721c0.783,2.832 1.028,5.808 0.722,8.747c-4.969,51.18 4.566,111.335 4.442,121.371c0,0 -86.056,38.704 -109.083,9.384c-11.104,-61.004 4.885,-114.124 12.353,-136.334c1.171,-3.49 3.145,-6.592 5.731,-9.008c2.587,-2.416 5.699,-4.065 9.037,-4.787z" fill="#040F26"/>
<path id="Vector_98" data-node-id="13:107" d="M413.5593,190.4248c-3.706,-5.185 -10.299,-12.007 -32.41,-10.764c-19.182,18.344 -32.549,43.6 -32.549,43.6c0,0 -12.186,-18.813 -0.624,-40.174c-12.728,0.379 -21.056,4.685 -24.054,6.959c-2.998,2.274 -17.697,32.836 -20.945,81.348c-3.248,48.512 3.9,139.23 6.676,162.47c41.404,18.192 109.874,-2.274 124.448,-18.192c-1.846,-36.884 -14.56,-92.218 -16.878,-115.716c-2.318,-23.498 2.346,-99.298 -3.664,-109.531z" fill="#040F26"/>
<path id="Vector_99" data-node-id="13:108" opacity="0.7" d="M413.5593,190.4248c-3.706,-5.185 -10.299,-12.007 -32.41,-10.764c-19.182,18.344 -32.549,43.6 -32.549,43.6c0,0 -12.186,-18.813 -0.624,-40.174c-12.728,0.379 -21.056,4.685 -24.054,6.959c-2.998,2.274 -17.697,32.836 -20.945,81.348c-3.248,48.512 3.9,139.23 6.676,162.47c41.404,18.192 109.874,-2.274 124.448,-18.192c-1.846,-36.884 -14.56,-92.218 -16.878,-115.716c-2.318,-23.498 2.346,-99.298 -3.664,-109.531z" fill="white"/>
<path id="Vector_100" data-node-id="13:109" d="M344.8663,188.8328c1.063,-2.848 2.976,-5.22 5.427,-6.731c0.73,-2.799 0.554,-5.786 -0.499,-8.459l28.134,-12.932c-1.485,10.688 -2.623,19.132 1.388,23.862c-5.385,4.351 -15.268,12.204 -26.663,12.977c-11.395,0.773 -9.272,-4.154 -7.787,-8.717z" fill="#FFC3BD"/>
<path id="Vector_101" data-node-id="13:110" opacity="0.2" d="M350.0993,174.6278l21.625,-3.547c-6.135,8.611 -16.198,12.613 -21.153,9.854c0.338,-2.112 0.176,-4.283 -0.472,-6.307z" fill="black"/>
<path id="Vector_102" data-node-id="13:111" d="M351.9453,197.5798l4.345,-4.76l6.606,2.835c0,0 -3.692,4.548 -10.951,1.925z" fill="#040F26"/>
<path id="Vector_103" data-node-id="13:112" opacity="0.3" d="M351.9453,197.5798l4.345,-4.76l6.606,2.835c0,0 -3.692,4.548 -10.951,1.925z" fill="black"/>
<path id="Vector_104" data-node-id="13:113" d="M349.3083,155.9508c-5.677,-0.986 -8.328,-9.945 -4.608,-14.918c3.72,-4.972 -5.108,-6.882 -2.179,-11.673c2.929,-4.79 11.326,-9.596 16.448,-5.184c5.121,4.411 -6.51,17.464 -3.998,25.195c-1.782,2.299 -3.672,4.495 -5.663,6.58z" fill="#263238"/>
<path id="Vector_105" data-node-id="13:114" d="M382.2313,144.0198c-2.165,15.054 -3.928,25.226 -12.492,30.79c-17.072,11.052 -25.955,1.804 -27.954,-13.644c-1.805,-13.932 2.026,-36.202 16.128,-40.689c3.116,-0.989 6.411,-1.1 9.576,-0.323c3.166,0.778 6.1,2.419 8.528,4.769c2.428,2.351 4.272,5.336 5.358,8.675c1.087,3.339 1.381,6.925 0.856,10.422z" fill="#FFC3BD"/>
<path id="Vector_106" data-node-id="13:115" d="M376.0833,159.9678c-5.344,-2.289 -6.191,-11.688 -1.541,-15.645c4.65,-3.956 -3.623,-7.928 0.194,-11.931c3.817,-4.002 15.032,-7.913 17.073,-1.167c3.206,10.612 -9.813,15.524 -8.897,23.665c-2.194,1.821 -4.474,3.516 -6.829,5.078z" fill="#263238"/>
<path id="Vector_107" data-node-id="13:116" d="M377.4433,131.7558c-13.367,5.033 -10.188,-5.215 -17.628,-3.79c-7.439,1.425 -14.851,2.819 -16.364,-4.548c-1.236,-5.943 2.373,-11.37 9.535,-10.84c-3.706,2.699 -2.776,5.382 0.875,4.033c3.65,-1.349 12.866,-11.097 17.683,-3.335c4.816,7.761 13.103,1.804 16.975,6.867c3.873,5.063 -2.332,13.553 -11.076,11.613z" fill="#263238"/>
<path id="Vector_108" data-node-id="13:117" d="M344.9493,172.1108c0.39,-0.73 0.916,-1.361 1.546,-1.852c0.629,-0.492 1.347,-0.832 2.105,-0.998c1.873,0.705 3.589,1.83 5.038,3.305c0.694,3.669 -6.94,7.368 -8.05,7.868c-0.389,-3.274 -0.639,-8.323 -0.639,-8.323z" fill="#263238"/>
<path id="Vector_109" data-node-id="13:118" opacity="0.2" d="M363.7853,145.0808c0.791,-0.314 1.631,-0.454 2.472,-0.413c0.841,0.042 1.666,0.265 2.428,0.656c-1.633,0.262 -3.296,0.18 -4.9,-0.243z" fill="black"/>
<path id="Vector_110" data-node-id="13:119" opacity="0.2" d="M363.7853,146.3548c0.762,-0.112 1.538,-0.042 2.273,0.204c0.735,0.246 1.414,0.662 1.988,1.221c-1.497,-0.137 -2.95,-0.623 -4.261,-1.425z" fill="black"/>
<path id="Vector_111" data-node-id="13:120" opacity="0.2" d="M344.6723,143.3228c0,0 -1.138,-1.516 -1.985,-0.667c0.558,0.494 1.269,0.733 1.985,0.667z" fill="black"/>
<path id="Vector_112" data-node-id="13:121" opacity="0.2" d="M344.4643,144.5048c0,0 -0.93,-1.334 -1.527,0c0.227,0.163 0.492,0.25 0.764,0.25c0.271,0 0.536,-0.087 0.763,-0.25z" fill="black"/>
<path id="Vector_113" data-node-id="13:122" opacity="0.2" d="M348.8363,131.6648c4.054,-0.819 8.193,-1.023 12.298,-0.607c-6.815,0.697 -12.298,0.607 -12.298,0.607z" fill="black"/>
<path id="Vector_114" data-node-id="13:123" opacity="0.2" d="M347.2543,133.6958c0,0 9.396,-0.364 14.102,1.668c-4.734,-0.143 -9.45,-0.701 -14.102,-1.668z" fill="black"/>
<path id="Vector_115" data-node-id="13:124" d="M387.5203,159.6048c-0.967,1.566 -2.208,2.907 -3.652,3.948c-1.443,1.041 -3.061,1.76 -4.759,2.116c-4.567,0.924 -6.482,-3.639 -4.914,-8.126c1.388,-4.033 5.552,-9.369 9.952,-8.278c4.4,1.092 5.719,6.413 3.373,10.34z" fill="#FFC3BD"/>
<path id="Vector_116" data-node-id="13:125" d="M360.0373,145.5058c-0.111,1.228 -0.791,2.152 -1.527,2.077c-0.735,-0.076 -1.249,-1.153 -1.152,-2.381c0.097,-1.228 0.791,-2.167 1.541,-2.092c0.749,0.076 1.249,1.198 1.138,2.396z" fill="#263238"/>
<path id="Vector_117" data-node-id="13:126" d="M348.0593,144.4438c-0.111,1.228 -0.791,2.153 -1.527,2.077c-0.735,-0.075 -1.249,-1.152 -1.152,-2.38c0.097,-1.228 0.791,-2.168 1.541,-2.092c0.749,0.076 1.249,1.152 1.138,2.395z" fill="#263238"/>
<path id="Vector_118" data-node-id="13:127" d="M358.5943,159.1648c1.776,1.425 6.829,0.5 7.176,-1.516c3.261,2.426 0.596,6.2 -4.164,7.353c-4.761,1.152 -10.938,-0.956 -12.298,-2.835l0.166,-6.231c3.609,-0.743 5.983,0.743 9.12,3.229z" fill="#263238"/>
<path id="Vector_119" data-node-id="13:128" d="M342.6743,157.6028c-1.93,1.395 -3.179,0.501 -3.11,-1.516c-3.025,2.002 -2.776,5.155 0.764,6.868c3.539,1.713 7.634,0.925 9.036,-0.758l0.333,-6.155c-2.721,-1.122 -4.109,-0.531 -7.023,1.561z" fill="#263238"/>
<path id="Vector_120" data-node-id="13:129" d="M351.8623,145.8238l-0.833,10.37c0,0 -3.692,0.545 -5.677,-1.425c1.393,-3.568 3.642,-6.658 6.51,-8.945z" fill="#ED847E"/>
<path id="Vector_121" data-node-id="13:130" d="M364.1043,141.8368c0.118,0 0.234,-0.036 0.333,-0.106c0.149,-0.103 0.254,-0.266 0.293,-0.454c0.039,-0.187 0.009,-0.384 -0.085,-0.547c-0.531,-1.003 -1.275,-1.852 -2.168,-2.477c-0.894,-0.625 -1.911,-1.008 -2.967,-1.116c-0.087,-0.004 -0.174,0.011 -0.255,0.044c-0.082,0.033 -0.156,0.084 -0.22,0.149c-0.063,0.065 -0.114,0.143 -0.149,0.229c-0.036,0.087 -0.055,0.181 -0.057,0.276c-0.003,0.095 0.01,0.191 0.04,0.281c0.031,0.089 0.076,0.172 0.136,0.242c0.059,0.071 0.131,0.128 0.21,0.168c0.079,0.04 0.165,0.063 0.253,0.067c0.837,0.1 1.64,0.414 2.344,0.917c0.704,0.503 1.29,1.181 1.709,1.978c0.06,0.11 0.145,0.2 0.248,0.262c0.102,0.061 0.218,0.091 0.335,0.087z" fill="#263238"/>
<path id="Vector_122" data-node-id="13:131" d="M341.8823,140.0328c0.112,0.009 0.224,-0.012 0.326,-0.063c0.101,-0.05 0.19,-0.128 0.257,-0.225c0.492,-0.734 1.139,-1.328 1.885,-1.732c0.747,-0.404 1.571,-0.605 2.404,-0.588c0.088,0.009 0.176,-0.002 0.26,-0.031c0.083,-0.029 0.161,-0.076 0.228,-0.138c0.067,-0.062 0.122,-0.138 0.163,-0.223c0.04,-0.086 0.064,-0.179 0.071,-0.275c0.012,-0.192 -0.045,-0.382 -0.159,-0.529c-0.114,-0.147 -0.276,-0.24 -0.452,-0.259c-1.054,-0.035 -2.101,0.209 -3.05,0.71c-0.95,0.502 -1.775,1.246 -2.405,2.17c-0.107,0.152 -0.156,0.343 -0.135,0.533c0.021,0.19 0.109,0.364 0.246,0.483c0.105,0.09 0.23,0.147 0.361,0.167z" fill="#263238"/>
<path id="Vector_123" data-node-id="13:132" d="M440.4863,312.4778l8.328,-3.547c9.397,-0.091 7.426,13.128 7.426,13.128l1.388,6.777c0.178,1.209 -0.043,2.449 -0.626,3.497c-0.582,1.047 -1.488,1.834 -2.553,2.218l-5.816,2.532c-1.163,0.6 -2.496,0.679 -3.713,0.22c-1.216,-0.459 -2.22,-1.419 -2.796,-2.676l-2.096,-5.609c-0.607,-1.633 -0.836,-3.403 -0.667,-5.155z" fill="#FFC3BD"/>
<path id="Vector_124" data-node-id="13:133" d="M411.8103,188.3928l1.818,1.516l1.638,1.516c1.068,0.97 2.096,1.956 3.123,2.941c2.054,1.986 4.067,3.987 6.038,6.064c3.941,4.109 7.731,8.46 11.395,13.008c1.851,2.274 3.641,4.618 5.372,7.034c1.73,2.415 3.414,4.942 5.052,7.58c3.415,5.415 6.378,11.153 8.855,17.146l1.236,3.032l0.152,2.243c0.375,5.276 0.667,10.612 0.972,15.873l0.93,15.872c0.527,10.612 1.055,21.224 1.388,31.836l-24.387,2.957c-1.832,-10.4 -3.456,-20.83 -5.108,-31.245l-2.332,-15.63c-0.777,-5.215 -1.555,-10.43 -2.262,-15.645l1.388,5.275c-1.973,-3.856 -4.249,-7.518 -6.802,-10.945c-2.692,-3.623 -5.663,-7.201 -8.827,-10.703c-3.165,-3.502 -6.538,-6.883 -10.008,-10.157c-1.73,-1.658 -3.493,-3.27 -5.288,-4.836l-2.665,-2.305l-1.319,-1.106l-1.152,-0.94z" fill="#040F26"/>
<g id="Group_3" data-node-id="13:134" opacity="0.7">
<path id="Vector_125" data-node-id="13:135" d="M411.8103,188.3928l1.818,1.516l1.638,1.516c1.068,0.97 2.096,1.956 3.123,2.941c2.054,1.986 4.067,3.987 6.038,6.064c3.941,4.109 7.731,8.46 11.395,13.008c1.851,2.274 3.641,4.618 5.372,7.034c1.73,2.415 3.414,4.942 5.052,7.58c3.415,5.415 6.378,11.153 8.855,17.146l1.236,3.032l0.152,2.243c0.375,5.276 0.667,10.612 0.972,15.873l0.93,15.872c0.527,10.612 1.055,21.224 1.388,31.836l-24.387,2.957c-1.832,-10.4 -3.456,-20.83 -5.108,-31.245l-2.332,-15.63c-0.777,-5.215 -1.555,-10.43 -2.262,-15.645l1.388,5.275c-1.973,-3.856 -4.249,-7.518 -6.802,-10.945c-2.692,-3.623 -5.663,-7.201 -8.827,-10.703c-3.165,-3.502 -6.538,-6.883 -10.008,-10.157c-1.73,-1.658 -3.493,-3.27 -5.288,-4.836l-2.665,-2.305l-1.319,-1.106l-1.152,-0.94z" fill="white"/>
</g>
<path id="Vector_126" data-node-id="13:136" d="M376.7353,177.9478c0,0 -8.328,13.053 -20.445,14.902c4.896,2.206 9.268,5.602 12.783,9.93c0,0 12.492,-10.612 14.2,-21.012c-1.208,-3.744 -6.538,-3.82 -6.538,-3.82z" fill="#040F26"/>
<path id="Vector_127" data-node-id="13:137" opacity="0.3" d="M355.9983,435.6378c-0.161,0.003 -0.317,-0.056 -0.442,-0.167c-0.124,-0.111 -0.209,-0.267 -0.238,-0.44c-19.154,-103.194 -7.801,-208.904 -7.69,-209.966c0.011,-0.099 0.04,-0.195 0.085,-0.283c0.045,-0.087 0.105,-0.164 0.178,-0.226c0.072,-0.062 0.154,-0.108 0.243,-0.135c0.088,-0.027 0.181,-0.035 0.272,-0.023c0.091,0.012 0.179,0.044 0.259,0.093c0.08,0.049 0.15,0.115 0.207,0.194c0.057,0.079 0.099,0.169 0.124,0.265c0.024,0.097 0.031,0.198 0.02,0.297c-0.111,1.062 -11.437,106.53 7.676,209.481c0.033,0.197 -0.005,0.4 -0.106,0.567c-0.1,0.166 -0.257,0.284 -0.435,0.328z" fill="#040F26"/>
<path id="Vector_128" data-node-id="13:138" d="M376.4713,251.4128h-20.889c-0.36,0.011 -0.716,-0.066 -1.045,-0.224c-0.328,-0.159 -0.62,-0.396 -0.854,-0.694c-0.234,-0.298 -0.405,-0.649 -0.499,-1.028c-0.094,-0.378 -0.109,-0.775 -0.045,-1.161l1.388,-10.415c0.153,-0.838 0.562,-1.593 1.16,-2.144c0.597,-0.551 1.348,-0.864 2.129,-0.888h20.82c0.353,-0.009 0.702,0.067 1.025,0.221c0.323,0.155 0.61,0.384 0.843,0.673c0.233,0.289 0.405,0.63 0.504,0.999c0.1,0.37 0.124,0.758 0.071,1.139l-1.388,10.415c-0.137,0.839 -0.529,1.602 -1.114,2.167c-0.585,0.564 -1.327,0.895 -2.106,0.94z" fill="white"/>
<path id="Vector_129" data-node-id="13:139" d="M369.0733,237.3298h-2.262c-0.092,0.004 -0.183,-0.015 -0.267,-0.055c-0.084,-0.04 -0.159,-0.1 -0.219,-0.175c-0.06,-0.076 -0.104,-0.166 -0.128,-0.262c-0.024,-0.097 -0.027,-0.198 -0.011,-0.297l0.847,-6.185c0.032,-0.217 0.134,-0.415 0.286,-0.559c0.152,-0.144 0.345,-0.225 0.547,-0.229h2.262c0.092,-0.004 0.183,0.014 0.267,0.054c0.084,0.04 0.159,0.1 0.219,0.176c0.06,0.076 0.104,0.165 0.128,0.262c0.024,0.096 0.028,0.198 0.011,0.296l-0.847,6.185c-0.032,0.217 -0.133,0.415 -0.286,0.559c-0.152,0.144 -0.345,0.226 -0.547,0.23z" fill="#040F26"/>
<path id="Vector_130" data-node-id="13:140" d="M351.9453,197.5798l-5.76,-4.684l-6.593,2.865c0,0 5.649,5.822 12.353,1.819z" fill="#040F26"/>
<path id="Vector_131" data-node-id="13:141" opacity="0.3" d="M351.9453,197.5798l-5.76,-4.684l-6.593,2.865c0,0 5.649,5.822 12.353,1.819z" fill="black"/>
<path id="Vector_132" data-node-id="13:142" d="M350.2933,182.1018c0,0 -4.164,6.458 -4.164,10.794c-4.164,2.092 -10.465,7.898 -10.465,7.898c0,0 0.819,-9.096 9.161,-17.025c1.627,-1.145 3.533,-1.726 5.468,-1.667z" fill="#040F26"/>
<path id="Vector_133" data-node-id="13:143" d="M467.2053,548.1848l-3.817,2.851l-2.082,-0.925l-0.944,3.199l-23.013,17.176c-1.383,-1.873 -2.288,-4.111 -2.624,-6.489c0,0 6.468,-5.821 6.76,-11.552c0.007,-0.214 0.07,-0.421 0.18,-0.598c0.111,-0.177 0.265,-0.317 0.445,-0.402c2.623,-1.183 12.894,-6.064 16.656,-11.81c0.092,-0.144 0.214,-0.261 0.357,-0.342c0.142,-0.081 0.301,-0.124 0.461,-0.124c0.161,0 0.32,0.043 0.462,0.124c0.143,0.081 0.265,0.198 0.357,0.342c2.066,3.034 4.34,5.893 6.802,8.55z" fill="#263238"/>
</g></g></g></g><defs><clipPath id="clip0_13_2">
<rect width="694" height="861" fill="white" transform="translate(-106.2387, -77.50420000000003)"/>
</clipPath></defs></svg>