<svg viewBox="0 0 20.5557 25.8492" fill="none" xmlns="http://www.w3.org/2000/svg" xmlns:xlink="http://www.w3.org/1999/xlink" x="0" y="0"><path id="Vector_3" d="M8.1027,5.4359l0.96,-1.03v5.94c0,0.34 0.128,0.67 0.356,0.91c0.228,0.25 0.537,0.38 0.859,0.38c0.322,0 0.631,-0.13 0.859,-0.38c0.228,-0.24 0.356,-0.57 0.356,-0.91v-5.94l0.96,1.03c0.113,0.13 0.247,0.22 0.395,0.29c0.148,0.06 0.307,0.1 0.467,0.1c0.161,0 0.319,-0.04 0.468,-0.1c0.148,-0.07 0.282,-0.16 0.395,-0.29c0.114,-0.12 0.204,-0.26 0.266,-0.42c0.061,-0.15 0.093,-0.32 0.093,-0.49c0,-0.17 -0.032,-0.34 -0.093,-0.5c-0.062,-0.16 -0.152,-0.3 -0.266,-0.42l-3.037,-3.24c-0.116,-0.11 -0.252,-0.21 -0.401,-0.27c-0.296,-0.13 -0.628,-0.13 -0.924,0c-0.149,0.06 -0.285,0.16 -0.4,0.27l-3.038,3.24c-0.228,0.24 -0.357,0.57 -0.357,0.92c0,0.34 0.129,0.67 0.357,0.91c0.229,0.25 0.539,0.39 0.863,0.39c0.323,0 0.634,-0.14 0.862,-0.39zM17.5667,7.1859c-0.115,-0.12 -0.251,-0.22 -0.401,-0.28c-0.15,-0.07 -0.311,-0.1 -0.473,-0.1c-0.163,0 -0.324,0.03 -0.474,0.1c-0.15,0.06 -0.286,0.16 -0.401,0.28c-0.115,0.12 -0.206,0.27 -0.268,0.43c-0.062,0.16 -0.094,0.33 -0.094,0.5c0,0.18 0.032,0.35 0.094,0.51c0.062,0.16 0.153,0.3 0.268,0.42c1.096,1.17 1.843,2.66 2.145,4.28c0.303,1.62 0.148,3.29 -0.445,4.82c-0.593,1.52 -1.598,2.83 -2.886,3.74c-1.289,0.92 -2.804,1.41 -4.354,1.41c-1.55,0 -3.065,-0.49 -4.354,-1.41c-1.288,-0.91 -2.293,-2.22 -2.886,-3.74c-0.593,-1.53 -0.748,-3.2 -0.445,-4.82c0.303,-1.62 1.049,-3.11 2.145,-4.28c0.115,-0.12 0.206,-0.26 0.268,-0.42c0.063,-0.16 0.095,-0.33 0.095,-0.51c0,-0.17 -0.032,-0.34 -0.095,-0.5c-0.062,-0.16 -0.153,-0.31 -0.268,-0.43c-0.115,-0.12 -0.251,-0.22 -0.401,-0.28c-0.15,-0.07 -0.311,-0.1 -0.473,-0.1c-0.163,0 -0.324,0.03 -0.474,0.1c-0.15,0.06 -0.286,0.16 -0.401,0.28c-1.431,1.53 -2.404,3.49 -2.796,5.61c-0.391,2.12 -0.184,4.32 0.596,6.31c0.779,2 2.097,3.7 3.785,4.9c1.689,1.2 3.674,1.84 5.704,1.84c2.03,0 4.015,-0.64 5.704,-1.84c1.689,-1.2 3.006,-2.9 3.786,-4.9c0.779,-1.99 0.987,-4.19 0.595,-6.31c-0.392,-2.12 -1.364,-4.08 -2.796,-5.61z" fill="currentColor"/></svg>