<svg viewBox="0 0 1.5 12.5" fill="none" xmlns="http://www.w3.org/2000/svg" xmlns:xlink="http://www.w3.org/1999/xlink" x="0" y="0"><g id="Group">
<path id="Vector_15" d="M0.75,1.5005c0.41,0 0.75,-0.336 0.75,-0.75c0,-0.415 -0.34,-0.75 -0.75,-0.75c-0.41,0 -0.75,0.335 -0.75,0.75c0,0.414 0.34,0.75 0.75,0.75z" stroke="black" stroke-width="1.5" stroke-linecap="round" stroke-linejoin="round"/>
<path id="Vector_16" d="M0.75,7.0005c0.41,0 0.75,-0.336 0.75,-0.75c0,-0.415 -0.34,-0.75 -0.75,-0.75c-0.41,0 -0.75,0.335 -0.75,0.75c0,0.414 0.34,0.75 0.75,0.75z" stroke="black" stroke-width="1.5" stroke-linecap="round" stroke-linejoin="round"/>
<path id="Vector_17" d="M0.75,12.5005c0.41,0 0.75,-0.336 0.75,-0.75c0,-0.415 -0.34,-0.75 -0.75,-0.75c-0.41,0 -0.75,0.335 -0.75,0.75c0,0.414 0.34,0.75 0.75,0.75z" stroke="black" stroke-width="1.5" stroke-linecap="round" stroke-linejoin="round"/>
</g></svg>