<svg viewBox="0 0 40 40" fill="none" xmlns="http://www.w3.org/2000/svg" xmlns:xlink="http://www.w3.org/1999/xlink" x="0" y="0"><defs><clipPath id="clip3_17_5">
<rect width="40" height="40" fill="white" transform="translate(0, 0)"/>
</clipPath></defs><g id="twemoji:hospital" clip-path="url(#clip3_17_5)">
<path id="Vector_6" d="M0,10v27.778c0,0.589 0.23,1.154 0.65,1.571c0.42,0.417 0.98,0.651 1.57,0.651h35.56c0.59,0 1.15,-0.234 1.57,-0.651c0.42,-0.417 0.65,-0.982 0.65,-1.571v-27.778z" fill="#CCD6DD"/>
<path id="Vector_7" d="M37.78,7.778h-35.56c-0.59,0 -1.15,0.234 -1.57,0.651c-0.42,0.416 -0.65,0.982 -0.65,1.571h40c0,-0.589 -0.23,-1.155 -0.65,-1.571c-0.42,-0.417 -0.98,-0.651 -1.57,-0.651z" fill="#99AAB5"/>
<path id="Vector_8" d="M2.22,20h35.56v4.444h-35.56zM2.22,13.333h35.56v4.445h-35.56zM2.22,26.667h35.56v4.444h-35.56z" fill="#55ACEE"/>
<path id="Vector_9" d="M37.78,26.667h-35.56v4.444h35.56z" fill="#55ACEE"/>
<path id="Vector_10" d="M8.89,2.222h22.22v37.778h-22.22z" fill="#E1E8ED"/>
<path id="Vector_11" d="M11.11,22.222h17.78v4.445h-17.78zM11.11,15.556h17.78v4.444h-17.78zM11.11,28.889h17.78v4.444h-17.78z" fill="#55ACEE"/>
<path id="Vector_12" d="M14.44,35.556h11.12v4.444h-11.12z" fill="#3B88C3"/>
<path id="Vector_13" d="M24.44,7.222v3.333h-2.77v2.778h-3.34v-2.778h-2.77v-3.333h2.77v-2.778h3.34v2.778zM19.44,8.333h-2.77v1.111h2.77v2.778h1.12v-2.778h2.77v-1.111h-2.77v-2.778h-1.12z" fill="#DD2E44"/>
<path id="Vector_14" d="M28.89,0h-17.78c-0.59,0 -1.15,0.234 -1.57,0.651c-0.42,0.417 -0.65,0.982 -0.65,1.571h22.22c0,-0.589 -0.23,-1.154 -0.65,-1.571c-0.42,-0.417 -0.98,-0.651 -1.57,-0.651z" fill="#99AAB5"/>
</g></svg>