<svg viewBox="0 0 14 14" fill="none" xmlns="http://www.w3.org/2000/svg" xmlns:xlink="http://www.w3.org/1999/xlink" x="0" y="0"><path id="Vector_30" d="M7,3.0801c0,-0.125 -0.039,-0.233 -0.117,-0.327c-0.077,-0.093 -0.179,-0.14 -0.303,-0.14c-0.124,0 -0.233,0.047 -0.327,0.14c-0.093,0.094 -0.14,0.202 -0.14,0.327v4.807c0,0.155 0.078,0.28 0.234,0.373l3.08,1.727c0.093,0.062 0.194,0.077 0.303,0.046c0.109,-0.031 0.194,-0.101 0.257,-0.21c0.062,-0.109 0.077,-0.218 0.046,-0.326c-0.031,-0.109 -0.093,-0.195 -0.186,-0.257l-2.847,-1.633zM7,14.0001c1.276,0 2.45,-0.311 3.523,-0.933c1.074,-0.623 1.921,-1.47 2.544,-2.544c0.622,-1.073 0.933,-2.248 0.933,-3.523c0,-1.276 -0.311,-2.45 -0.933,-3.523c-0.623,-1.074 -1.47,-1.922 -2.544,-2.544c-1.073,-0.622 -2.247,-0.933 -3.523,-0.933c-1.276,0 -2.45,0.311 -3.523,0.933c-1.074,0.622 -1.921,1.47 -2.544,2.544c-0.622,1.073 -0.933,2.247 -0.933,3.523c0,1.275 0.311,2.45 0.933,3.523c0.623,1.074 1.47,1.921 2.544,2.544c1.073,0.622 2.247,0.933 3.523,0.933zM13.113,7.0001c0,1.12 -0.272,2.147 -0.816,3.08c-0.545,0.933 -1.284,1.672 -2.217,2.217c-0.933,0.544 -1.96,0.816 -3.08,0.816c-1.12,0 -2.147,-0.272 -3.08,-0.816c-0.933,-0.545 -1.672,-1.284 -2.217,-2.217c-0.544,-0.933 -0.816,-1.96 -0.816,-3.08c0,-1.12 0.272,-2.147 0.816,-3.08c0.545,-0.933 1.284,-1.672 2.217,-2.217c0.933,-0.544 1.96,-0.816 3.08,-0.816c1.12,0 2.147,0.272 3.08,0.816c0.933,0.545 1.672,1.284 2.217,2.217c0.544,0.933 0.816,1.96 0.816,3.08z" fill="currentColor"/></svg>