<svg viewBox="0 0 20 18.1608" fill="none" xmlns="http://www.w3.org/2000/svg" xmlns:xlink="http://www.w3.org/1999/xlink" x="0" y="0"><path id="Vector_4" d="M16.7204,16.8411c0.35,-0.85 0.54,-1.76 0.54,-2.76c0,-0.72 -0.11,-1.41 -0.3,-2.05c-0.65,0.15 -1.33,0.23 -2.04,0.23c-1.454,0.001 -2.888,-0.347 -4.179,-1.015c-1.291,-0.668 -2.403,-1.637 -3.241,-2.825c-0.896,2.17 -2.589,3.916 -4.73,4.88c-0.04,0.25 -0.04,0.52 -0.04,0.78c0,0.954 0.188,1.9 0.553,2.782c0.365,0.882 0.901,1.683 1.576,2.358c1.363,1.364 3.212,2.13 5.141,2.13c1.05,0 2.06,-0.23 2.97,-0.64c0.57,1.09 0.83,1.63 0.81,1.63c-1.64,0.55 -2.91,0.82 -3.78,0.82c-2.42,0 -4.73,-0.95 -6.43,-2.66c-1.035,-1.03 -1.804,-2.297 -2.24,-3.69h-1.33v-4.55h1.09c0.33,-1.608 1.089,-3.096 2.197,-4.307c1.107,-1.211 2.522,-2.099 4.094,-2.571c1.572,-0.471 3.242,-0.509 4.833,-0.108c1.592,0.401 3.045,1.226 4.206,2.386c1.259,1.255 2.119,2.856 2.47,4.6h1.11v4.55h-0.06l-3.56,3.27l-5.3,-0.6v-1.67h4.83zM7.2704,13.8511c0.3,0 0.59,0.12 0.8,0.34c0.211,0.212 0.329,0.5 0.329,0.8c0,0.299 -0.118,0.587 -0.329,0.8c-0.21,0.21 -0.5,0.33 -0.8,0.33c-0.63,0 -1.14,-0.5 -1.14,-1.13c0,-0.63 0.51,-1.14 1.14,-1.14zM12.7204,13.8511c0.63,0 1.13,0.51 1.13,1.14c0,0.63 -0.5,1.13 -1.13,1.13c-0.63,0 -1.14,-0.5 -1.14,-1.13c0,-0.303 0.12,-0.593 0.333,-0.806c0.214,-0.214 0.504,-0.334 0.807,-0.334z" fill="currentColor"/></svg>