<svg viewBox="0 0 16 20" fill="none" xmlns="http://www.w3.org/2000/svg" xmlns:xlink="http://www.w3.org/1999/xlink" x="0" y="0"><path id="Vector_6" d="M8.999,6.9995h5.5l-5.5,-5.5zM1.999,-0.0005h8l6,6v12c0,0.531 -0.21,1.04 -0.58,1.415c-0.38,0.375 -0.89,0.585 -1.42,0.585h-12c-0.53,0 -1.04,-0.21 -1.41,-0.585c-0.38,-0.375 -0.59,-0.884 -0.59,-1.415v-16c0,-0.53 0.21,-1.039 0.59,-1.414c0.37,-0.375 0.88,-0.586 1.41,-0.586zM6.929,10.4395c0.41,0.9 0.93,1.64 1.53,2.15l0.41,0.32c-0.87,0.16 -2.07,0.44 -3.34,0.93l-0.11,0.04l0.5,-1.04c0.45,-0.87 0.78,-1.66 1.01,-2.4zM13.409,14.2495c0.18,-0.18 0.27,-0.41 0.28,-0.66c0.03,-0.2 -0.02,-0.39 -0.12,-0.55c-0.29,-0.47 -1.04,-0.69 -2.28,-0.69l-1.29,0.07l-0.87,-0.58c-0.63,-0.52 -1.2,-1.43 -1.6,-2.56l0.04,-0.14c0.33,-1.33 0.64,-2.94 -0.02,-3.6c-0.08,-0.078 -0.18,-0.14 -0.28,-0.181c-0.1,-0.041 -0.22,-0.061 -0.33,-0.059h-0.24c-0.37,0 -0.7,0.39 -0.79,0.77c-0.37,1.33 -0.15,2.06 0.22,3.27v0.01c-0.25,0.88 -0.57,1.9 -1.08,2.93l-0.96,1.8l-0.89,0.49c-1.2,0.75 -1.77,1.59 -1.88,2.12c-0.04,0.19 -0.02,0.36 0.05,0.54l0.03,0.05l0.48,0.31l0.44,0.11c0.81,0 1.73,-0.95 2.97,-3.07l0.18,-0.07c1.03,-0.33 2.31,-0.56 4.03,-0.75c1.03,0.51 2.24,0.74 3,0.74c0.44,0 0.74,-0.11 0.91,-0.3zM12.999,13.5395l0.09,0.11c-0.01,0.1 -0.04,0.11 -0.09,0.13h-0.04l-0.19,0.02c-0.46,0 -1.17,-0.19 -1.9,-0.51c0.09,-0.1 0.13,-0.1 0.23,-0.1c1.4,0 1.8,0.25 1.9,0.35zM3.829,14.9995c-0.65,1.19 -1.24,1.85 -1.69,2c0.05,-0.38 0.5,-1.04 1.21,-1.69zM6.849,8.0895c-0.23,-0.9 -0.24,-1.63 -0.07,-2.05l0.07,-0.12l0.15,0.05c0.17,0.24 0.19,0.56 0.09,1.1l-0.03,0.16l-0.16,0.82z" fill="currentColor"/></svg>