<svg viewBox="0 0 174.1667 174.1667" fill="none" xmlns="http://www.w3.org/2000/svg" xmlns:xlink="http://www.w3.org/1999/xlink" x="0" y="0"><path id="Vector_6" d="M59.3334,83.7044c3.98,-3.309 7.99,-3.309 12.07,0.096l0.94,0.853l43.42,43.42l0.82,0.723c1.67,1.299 3.76,1.942 5.88,1.808c2.11,-0.133 4.11,-1.034 5.61,-2.533c1.5,-1.499 2.4,-3.494 2.53,-5.61c0.13,-2.115 -0.51,-4.207 -1.81,-5.883l-0.72,-0.818l-11.25,-11.26l2.54,-2.552l0.92,-0.827c3.98,-3.309 8,-3.309 12.07,0.096l0.95,0.853l40.7,40.711c-0.83,8.293 -4.6,16.016 -10.63,21.766c-6.03,5.75 -13.92,9.148 -22.25,9.576l-1.79,0.043h-104.5c-8.64,0 -16.97,-3.211 -23.38,-9.009c-6.4,-5.799 -10.42,-13.77 -11.28,-22.367l58.23,-58.259zM139.3334,0.0004c8.94,0 17.53,3.435 24.01,9.594c6.47,6.159 10.33,14.572 10.78,23.497l0.04,1.742v83.469l-28.67,-28.667l-1.31,-1.194c-10.94,-9.535 -24.82,-9.553 -35.67,-0.148l-1.34,1.22l-2.67,2.664l-19.97,-19.959l-1.31,-1.193c-10.94,-9.536 -24.82,-9.553 -35.67,-0.148l-1.34,1.219l-46.21,46.206v-83.469c0,-8.937 3.43,-17.532 9.59,-24.007c6.16,-6.476 14.57,-10.336 23.5,-10.783l1.74,-0.043zM113.2934,43.5414l-1.1,0.061c-2.12,0.252 -4.07,1.271 -5.49,2.865c-1.41,1.594 -2.19,3.651 -2.19,5.783c0,2.131 0.78,4.189 2.19,5.782c1.42,1.594 3.37,2.613 5.49,2.865l1.01,0.061l1.11,-0.061c2.12,-0.252 4.07,-1.271 5.48,-2.865c1.42,-1.593 2.2,-3.651 2.2,-5.782c0,-2.132 -0.78,-4.189 -2.2,-5.783c-1.41,-1.594 -3.36,-2.613 -5.48,-2.865z" fill="currentColor"/></svg>