<svg viewBox="0 0 14 10.4774" fill="none" xmlns="http://www.w3.org/2000/svg" xmlns:xlink="http://www.w3.org/1999/xlink" x="0" y="0"><path id="Vector_31" d="M13.1131,10.4778c0.094,0 0.171,0 0.234,0c0.186,-0.063 0.342,-0.156 0.466,-0.28c0.125,-0.125 0.187,-0.312 0.187,-0.56c0,-0.405 -0.125,-0.84 -0.373,-1.307c-0.312,-0.622 -0.747,-1.12 -1.307,-1.493c-0.747,-0.467 -1.649,-0.7 -2.707,-0.7c-1.058,0 -1.944,0.233 -2.66,0.7c-0.591,0.373 -1.042,0.871 -1.353,1.493c-0.218,0.467 -0.327,0.902 -0.327,1.307c0,0.248 0.062,0.435 0.187,0.56c0.124,0.124 0.264,0.217 0.42,0.28h0.233zM6.1601,9.6378c-0.031,0 -0.047,0 -0.047,0c0,-0.187 0.047,-0.389 0.14,-0.607c0.125,-0.342 0.311,-0.653 0.56,-0.933c0.622,-0.716 1.564,-1.082 2.824,-1.097c1.26,-0.016 2.201,0.35 2.823,1.097c0.218,0.28 0.389,0.591 0.513,0.933c0.094,0.218 0.14,0.42 0.14,0.607zM9.6131,4.3638c0.498,0 0.918,-0.171 1.26,-0.513c0.342,-0.342 0.514,-0.755 0.514,-1.237c0,-0.482 -0.172,-0.894 -0.514,-1.236c-0.342,-0.343 -0.754,-0.514 -1.236,-0.514c-0.483,0 -0.895,0.171 -1.237,0.514c-0.342,0.342 -0.513,0.754 -0.513,1.236c0,0.482 0.171,0.895 0.513,1.237c0.342,0.342 0.747,0.513 1.213,0.513zM12.2731,2.6378c0,0.715 -0.256,1.33 -0.77,1.843c-0.513,0.513 -1.135,0.77 -1.866,0.77c-0.732,0 -1.354,-0.257 -1.867,-0.77c-0.513,-0.513 -0.77,-1.136 -0.77,-1.867c0,-0.731 0.257,-1.345 0.77,-1.843c0.513,-0.498 1.135,-0.755 1.867,-0.77c0.731,-0.016 1.345,0.233 1.843,0.747c0.498,0.513 0.747,1.143 0.747,1.89zM6.0671,6.3708c-0.343,-0.125 -0.7,-0.202 -1.074,-0.233c-0.218,0 -0.42,0 -0.606,0c-1.058,0 -1.96,0.233 -2.707,0.7c-0.56,0.373 -0.996,0.871 -1.307,1.493c-0.249,0.467 -0.373,0.902 -0.373,1.307c0,0.56 0.295,0.84 0.887,0.84h3.686c-0.124,-0.249 -0.186,-0.529 -0.186,-0.84c0,-0.934 0.311,-1.789 0.933,-2.567c0.218,-0.249 0.467,-0.482 0.747,-0.7zM4.2931,6.9778c-0.529,0.808 -0.793,1.695 -0.793,2.66h-2.613c0,-0.156 0.046,-0.358 0.14,-0.607c0.124,-0.342 0.295,-0.653 0.513,-0.933c0.622,-0.716 1.54,-1.074 2.753,-1.074zM1.3071,3.0578c0,-0.716 0.256,-1.33 0.77,-1.844c0.513,-0.513 1.135,-0.77 1.866,-0.77c0.731,0 1.354,0.257 1.867,0.77c0.513,0.514 0.77,1.128 0.77,1.844c0,0.715 -0.257,1.33 -0.77,1.843c-0.513,0.513 -1.136,0.77 -1.867,0.77c-0.731,0 -1.353,-0.257 -1.866,-0.77c-0.514,-0.513 -0.77,-1.128 -0.77,-1.843zM3.9201,1.3308c-0.467,0 -0.871,0.171 -1.213,0.513c-0.343,0.342 -0.514,0.755 -0.514,1.237c0,0.482 0.171,0.894 0.514,1.237c0.342,0.342 0.754,0.513 1.236,0.513c0.482,0 0.895,-0.171 1.237,-0.513c0.342,-0.343 0.513,-0.755 0.513,-1.237c0,-0.482 -0.171,-0.895 -0.513,-1.237c-0.342,-0.342 -0.762,-0.513 -1.26,-0.513z" fill="currentColor"/></svg>