<svg viewBox="0 0 16 16" fill="none" xmlns="http://www.w3.org/2000/svg" xmlns:xlink="http://www.w3.org/1999/xlink" x="0" y="0"><defs><linearGradient id="paint0_linear_1_47" x1="2.2490000000000236" y1="3.9565000000000055" x2="6.919000000000096" y2="12.04249999999999" gradientUnits="userSpaceOnUse">
<stop stop-color="#18884F"/>
<stop offset="0.5" stop-color="#117E43"/>
<stop offset="1" stop-color="#0B6631"/>
</linearGradient></defs><g id="vscode-icons:file-type-excel">
<path id="Vector_7" d="M9.789,7.6745l-5.53,-0.975v7.205c0,0.078 0.01,0.156 0.04,0.228c0.03,0.073 0.08,0.138 0.13,0.194c0.06,0.055 0.12,0.099 0.2,0.129c0.07,0.029 0.15,0.045 0.22,0.044h9.55c0.08,0.001 0.16,-0.014 0.23,-0.044c0.07,-0.03 0.14,-0.074 0.2,-0.129c0.05,-0.055 0.1,-0.121 0.13,-0.194c0.03,-0.072 0.04,-0.15 0.04,-0.228v-2.655z" fill="#185C37"/>
<path id="Vector_8" d="M9.789,1.4995h-4.94c-0.07,0 -0.15,0.016 -0.22,0.045c-0.08,0.03 -0.14,0.074 -0.2,0.129c-0.05,0.056 -0.1,0.121 -0.13,0.194c-0.03,0.072 -0.04,0.15 -0.04,0.228v2.654l5.53,3.25l2.93,0.975l2.28,-0.975v-3.25z" fill="#21A366"/>
<path id="Vector_9" d="M4.259,4.7495h5.53v3.25h-5.53z" fill="#107C41"/>
<path id="Vector_10" opacity="0.1" d="M8.219,4.0995h-3.96v8.125h3.96c0.16,0 0.31,-0.063 0.42,-0.175c0.11,-0.111 0.17,-0.262 0.18,-0.42v-6.934c-0.01,-0.158 -0.07,-0.309 -0.18,-0.42c-0.11,-0.112 -0.26,-0.175 -0.42,-0.176z" fill="black"/>
<path id="Vector_11" opacity="0.2" d="M7.889,4.4245h-3.63v8.125h3.63c0.16,0 0.31,-0.063 0.42,-0.175c0.12,-0.111 0.18,-0.262 0.18,-0.42v-6.934c0,-0.158 -0.06,-0.309 -0.18,-0.42c-0.11,-0.112 -0.26,-0.175 -0.42,-0.176z" fill="black"/>
<path id="Vector_12" opacity="0.2" d="M7.889,4.4245h-3.63v7.475h3.63c0.16,0 0.31,-0.063 0.42,-0.175c0.12,-0.111 0.18,-0.262 0.18,-0.42v-6.284c0,-0.158 -0.06,-0.309 -0.18,-0.42c-0.11,-0.112 -0.26,-0.175 -0.42,-0.176z" fill="black"/>
<path id="Vector_13" opacity="0.2" d="M7.569,4.4245h-3.31v7.475h3.31c0.15,0 0.31,-0.063 0.42,-0.175c0.11,-0.111 0.17,-0.262 0.17,-0.42v-6.284c0,-0.158 -0.06,-0.309 -0.17,-0.42c-0.11,-0.112 -0.27,-0.175 -0.42,-0.176z" fill="black"/>
<path id="Vector_14" d="M1.599,4.4245h5.97c0.16,0 0.31,0.063 0.42,0.175c0.11,0.111 0.17,0.263 0.17,0.421v5.959c0,0.158 -0.06,0.31 -0.17,0.421c-0.11,0.112 -0.26,0.175 -0.42,0.174h-5.97c-0.08,0.001 -0.16,-0.014 -0.23,-0.044c-0.07,-0.03 -0.14,-0.074 -0.19,-0.129c-0.06,-0.056 -0.1,-0.121 -0.13,-0.194c-0.03,-0.072 -0.05,-0.15 -0.05,-0.228v-5.959c0,-0.078 0.02,-0.156 0.05,-0.228c0.03,-0.073 0.07,-0.138 0.13,-0.194c0.05,-0.055 0.12,-0.099 0.19,-0.129c0.07,-0.03 0.15,-0.045 0.23,-0.045z" fill="url(#paint0_linear_1_47)"/>
<path id="Vector_15" d="M2.849,9.9365l1.26,-1.942l-1.15,-1.931h0.92l0.63,1.236c0.06,0.117 0.1,0.204 0.12,0.262h0.01c0.04,-0.093 0.08,-0.184 0.13,-0.273l0.67,-1.223h0.85l-1.18,1.92l1.21,1.952h-0.91l-0.72,-1.355c-0.04,-0.058 -0.07,-0.119 -0.09,-0.183h-0.01c-0.02,0.062 -0.05,0.121 -0.08,0.176l-0.75,1.361z" fill="white"/>
<path id="Vector_16" d="M14.399,1.4995h-4.61v3.25h5.21v-2.654c0,-0.078 -0.01,-0.156 -0.04,-0.228c-0.03,-0.073 -0.08,-0.138 -0.13,-0.194c-0.06,-0.055 -0.13,-0.099 -0.2,-0.129c-0.07,-0.03 -0.15,-0.045 -0.23,-0.045z" fill="#33C481"/>
<path id="Vector_17" d="M9.789,7.9995h5.21v3.25h-5.21z" fill="#107C41"/>
</g></svg>